<?xml version="1.0" encoding="UTF-8"?>
<svg id="Layer_1" data-name="Layer 1" xmlns="http://www.w3.org/2000/svg" viewBox="0 0 800 600">
  <defs>
    <style>
      .cls-1 {
        font-family: BellabooRegular, Bellaboo;
        font-size: 64.68px;
      }

      .cls-1, .cls-2 {
        fill: #868b63;
      }

      .cls-2 {
        stroke-width: 0px;
      }
    </style>
  </defs>
  <path class="cls-2" d="M526.04,255.24c4.83-6.33,9.88-12.5,14.44-19.02,8.02-11.47,14.91-23.59,21.14-36.16,6.37-12.86,7.76-26.18,7.12-40.24-1.53-33.77-2.71-67.57-.84-101.38.39-7.13,1.47-14.23,2.3-21.34.17-1.48.38-3.09,1.1-4.33.94-1.62,2.13-3.64,3.7-4.23,2.31-.88,3.98,1.22,5.15,3.07,1.15,1.81,2.13,3.76,2.96,5.75,4.94,11.86,8.42,24.16,11.29,36.68,3.94,17.23,6.3,34.68,8.49,52.19,3.19,25.52,3.87,51.12,2.98,76.78-.03.96.09,1.92.16,3.32,2.06-.17,3.83-.28,5.6-.47,9.9-1.06,18.97.88,26.3,7.99,6.34,6.13,12.22,12.74,18.62,18.8,3.84,3.64,8.16,6.83,12.52,9.86,2.27,1.58,5,2.72,7.7,3.44,5.98,1.6,11.28.38,14.98-5.01,1.59-2.32,2.91-4.83,4.32-7.28.74-1.29,1.25-2.87,3.28-1.95-.4,10.77-11.36,20.09-21.62,17.88-3.95-.85-7.88-2.69-11.33-4.86-9.22-5.84-16.7-13.7-23.82-21.89-1.09-1.26-2.27-2.43-3.39-3.66-9.01-9.86-20.12-12.2-33.26-9.16-.19,1.64-.35,3.41-.62,5.16-.6,3.94-1.07,7.91-1.94,11.79-1.07,4.8-4.2,7.34-9.2,7.62-2.62.14-5.23.58-8.09.91,0,4.56-.41,8.89.07,13.11,2.53,22.17,5.91,44.2,11.36,65.87,1.18,4.67,2.1,9.43,2.85,14.19.94,6.02-.97,8.59-6.81,10.02-8.44,2.07-16.89,1.27-25.3.02-4.04-.6-5.36-2.28-5.55-6.38-.13-2.82.02-5.66.24-8.48,1.48-19.09,3.08-38.17,4.5-57.26,1.14-15.43,2.07-30.87,3.11-46.55-2.07-.57-3.83-.93-5.49-1.54-3.63-1.33-5.05-4.1-3.95-7.43,1.23-3.74,5.24-6.39,8.43-5.56,2,.52,3.05,1.92,3.43,3.87.37,1.95.68,3.91,1.08,6.3,10.06-.9,18.32-7.03,28.32-8.52.15-2.26.34-4.21.4-6.17.66-21.83.33-43.65-1.98-65.37-2.92-27.49-6.84-54.83-14.88-81.38-1.45-4.77-3.15-9.48-4.97-14.12-1.2-3.04-2.39-6.2-5.7-8.8-.61,1.41-1.36,2.45-1.5,3.57-1.05,8.25-2.67,16.51-2.8,24.78-.38,24.81-.28,49.62-.14,74.43.06,10.65.36,21.33,1.14,31.95,1.09,14.71-3.37,27.87-9.9,40.66-12.13,23.75-27.49,45.18-45.98,64.38-1.03,1.07-1.96,2.28-2.74,3.54-14.91,24.28-36.36,40.37-62.98,49.71-24.36,8.55-49.4,10.21-74.86,6.3-33.1-5.07-60.95-20.23-84.38-43.89-14.87-15.02-27.25-31.87-36.78-50.74-2.01-3.97-3.32-8.33-4.62-12.61-.66-2.19-.76-4.6-.77-6.91-.02-3.53,1.48-5.61,3.99-6.09,2.48-.47,4.29.47,5.89,3.59,2.59,5.03,4.85,10.23,7.46,15.25,16.14,30.99,38.42,56.31,69.2,73.41,24.39,13.54,50.76,18.72,78.5,16.56,23.01-1.79,44.27-9.24,63.62-21.7,8.93-5.75,17.22-12.49,25.7-18.93,7.03-5.34,12.1-12.3,15.86-20.25,12.24-25.84,19.06-52.9,17.64-81.63-1.3-26.5-7.9-51.61-21.65-74.51-17.01-28.32-42.01-45.82-73.93-53.58-18.88-4.59-38.04-6.7-57.46-5.09-25.86,2.14-50.57,8.08-72.6,22.62-25.47,16.82-42.9,39.99-54.07,68.14-4.8,12.1-8.39,24.55-10.49,37.41-.52,3.2-.51,6.49-.79,10.33,1.79-.79,2.82-1.26,3.86-1.69,5.27-2.16,9.79-.44,11.78,4.76,1.52,3.96,1.9,8.08.57,12.24-1.8,5.61-7.43,7.42-11.74,3.34-2.46-2.34-4.06-5.6-5.99-8.48-.43-.64-.64-1.44-1.23-2.83-1.59,1.64-2.96,2.79-4.02,4.18-6.55,8.61-13.13,17.2-19.42,25.99-1.12,1.56-1.46,4.07-1.31,6.08.49,6.3,1.49,12.56,2.11,18.85,2.52,25.34,5.03,50.69,7.36,76.05.35,3.76-.16,7.63-.54,11.42-.37,3.63-2.8,5.58-6.22,6.21-7.42,1.36-14.87,1.76-22.32.18-4.61-.98-6.4-2.57-6.52-7.4-.19-7.81-.25-15.66.27-23.46.92-13.95,2.78-27.85,3.35-41.81.44-10.7,3.55-20.22,9.09-29.14,2.54-4.1,5.03-8.25,7.8-12.19,1.42-2.03,2.09-3.94,1.84-6.45-1.28-13.09-2.46-26.18-3.54-39.29-.37-4.48-.45-8.98-.48-13.48-.03-4.45,1.19-8.55,4.2-11.98,4.84-5.51,7.04-12.09,7.18-19.26.45-24.48.44-48.96-1.78-73.38-.04-.47-.28-.93-.76-2.47-.39,7.7-.78,14.31-1.06,20.93-.39,9.15-.66,18.3-1.06,27.45-.07,1.64-.33,3.35-.93,4.86-.35.89-1.57,2.05-2.33,2.01-.84-.05-1.8-1.23-2.34-2.13-.48-.81-.56-1.91-.65-2.89-.33-3.98-.76-7.95-.85-11.94-.26-10.32-.33-20.65-.54-30.97-.05-2.65-.3-5.29-1.21-8.01-.08,1.43-.2,2.86-.25,4.29-.32,10.15-.56,20.31-.96,30.46-.23,5.82-.73,11.63-1.14,17.44-.06.82-.07,1.76-.48,2.41-.49.75-1.37,1.69-2.12,1.71-.73.02-1.87-.84-2.17-1.58-.62-1.51-1.04-3.19-1.13-4.82-.42-7.81-.72-15.63-1.01-23.45-.34-9.13-.62-18.27-1.69-27.41-.1,1.74-.24,3.48-.29,5.23-.37,12.49-.69,24.97-1.12,37.46-.12,3.49-.53,6.97-.9,10.45-.1.97-.37,1.99-.84,2.84-.99,1.79-3.09,1.87-3.85.03-.75-1.81-1.2-3.83-1.3-5.79-.41-7.98-.6-15.98-.94-23.96-.29-6.8-.67-13.59-1.64-20.4-.09.54-.24,1.08-.25,1.62-.48,21.48-1.33,42.96-.02,64.44.09,1.5.35,2.99.36,4.48.04,8.48,3.13,14.92,11.01,19.17,5.17,2.79,7.33,8.27,7.52,13.95.23,7.29-.05,14.63-.56,21.92-.59,8.46-1.69,16.89-2.5,25.34-.17,1.81-.03,3.64-.03,5.76,1.06.76,2.34,1.51,3.43,2.49,2.69,2.43,2.95,7.33.62,10.02-2.02,2.34-6.14,1.44-7.17-1.78-.69-2.16-.71-4.52-1.07-7.07-3.75-.61-7.32.22-10.53,1.92-5.13,2.72-10.18,5.64-15.06,8.79-14.26,9.19-29.56,11.48-45.89,7.2-12.15-3.18-20.01-11.39-25.65-22.13-.4-.76-.28-1.8-.5-3.49,1.41.82,2.32,1.11,2.88,1.72.89.98,1.6,2.13,2.29,3.27,9.84,16.29,24.82,21.09,42.8,19.13,9.19-1,17.12-5.11,24.72-10.06,3.48-2.27,6.92-4.74,10.7-6.36,4.53-1.94,9.4-3.06,14.74-4.73.38-3.78.86-8.21,1.26-12.65.9-9.94,1.82-19.89,2.6-29.84.22-2.81.02-5.66-.1-8.48-.26-5.73-2.65-10.24-7.77-13.11-6.63-3.72-10.17-9.3-10.56-16.96-.32-6.32-1.18-12.61-1.3-18.93-.41-21.82-.21-43.64,1.61-65.41.17-2.09-.02-4.35,2.06-5.9,2.68.53,2.9,2.7,3.07,4.58.71,7.79,1.37,15.58,1.83,23.39.36,6.15.36,12.32.62,18.47.09,2.13.49,4.25,1.29,6.35.17-7.95.22-15.91.54-23.86.33-8.31.87-16.62,1.43-24.92.12-1.71-.12-4.2,2.38-4.28,2.64-.08,2.92,2.39,3.1,4.35.59,6.46,1.27,12.92,1.49,19.4.33,9.49.27,18.98.45,28.48.04,1.92.4,3.84,1.28,5.7.41-12.73.77-25.46,1.27-38.19.19-4.82.71-9.63,1.15-14.43.1-1.15.28-2.37.8-3.36.39-.73,1.34-1.44,2.14-1.59.54-.1,1.66.71,1.83,1.3.62,2.22,1.26,4.51,1.34,6.79.47,14.48.79,28.96,1.15,43.45.04,1.66,0,3.32.64,5.03.31-4.29.68-8.57.92-12.87.74-13.13,1.42-26.27,2.17-39.39.07-1.3.37-2.64.88-3.83.26-.6,1.26-1.26,1.89-1.23.65.03,1.65.77,1.81,1.38.6,2.24,1.08,4.53,1.31,6.84,2.65,26.73,2.64,53.54,2.02,80.36-.18,7.74-2.31,14.81-7.56,20.65-2.63,2.92-3.73,6.26-3.53,10.07.52,9.8,1.03,19.61,1.71,29.41.48,6.9,1.23,13.79,1.94,21.48.96-1.16,1.49-1.7,1.9-2.32,6.27-9.46,13.13-18.44,21.23-26.44.96-.95,1.9-2.54,1.85-3.79-.46-10.51,2.29-20.49,4.94-30.45,5.54-20.8,14.43-40.07,27.41-57.3,21.41-28.4,49.86-45.57,84.71-52.1,16.24-3.04,32.64-4.6,49.2-3.22,24.44,2.05,48.01,6.92,69.4,19.88,16.18,9.8,29.02,22.74,38.83,38.8,12.63,20.67,19.5,43.17,22.09,67.22,3.08,28.65-1.61,56.03-12,82.65-.72,1.83-1.38,3.68-2.07,5.53.33.26.67.53,1,.79ZM573.68,220.1c-.2,1.95-.46,3.93-.58,5.92-.74,11.96-1.33,23.93-2.18,35.89-1.14,16.11-2.48,32.2-3.72,48.3-.49,6.31-1.07,12.61-1.39,18.92-.29,5.79.44,6.53,6.34,7.04,3.48.3,6.99.57,10.47.5,3.31-.06,6.67-.31,9.91-.97,4.15-.84,5.02-2.16,4.58-6.27-.32-2.97-.82-5.94-1.53-8.84-5.63-23.15-9.95-46.52-12.32-70.23-.45-4.46-.64-8.97-.5-13.45.11-3.7,1.16-4.54,4.86-5.09,2.3-.34,4.64-.43,6.96-.68,2.54-.27,4.39-1.58,5.29-3.98,2-5.34,2.61-10.83,1.86-17.12-9.45,3.39-18.47,6.62-28.04,10.05ZM215.41,228.04c-.5-.11-.99-.22-1.49-.33-3.93,7.07-8.02,14.06-11.7,21.27-1.32,2.58-2.01,5.64-2.33,8.55-.78,6.93-1.14,13.91-1.72,20.86-.87,10.43-1.93,20.85-2.61,31.29-.43,6.62-.51,13.29-.39,19.92.07,4.19,1.21,5.07,5.32,5.84,6.3,1.19,12.57.76,18.85-.15,3.02-.44,4.92-2.05,5.15-5.14.23-3.14.55-6.32.27-9.44-2.24-24.15-4.58-48.3-6.97-72.44-.67-6.76-1.58-13.5-2.38-20.24ZM498.95,288.16c-.29-.25-.57-.49-.86-.74-2.56,1.84-5.11,3.69-7.67,5.53-21,15.11-43.9,25.53-69.83,28.7-26.73,3.27-52.45-.18-76.99-11.36-28.67-13.07-50.74-33.8-68.43-59.54-6.62-9.63-11.98-19.95-16.94-30.5-1.15-2.44-1.83-5.36-4.68-6.7-1.71,2.88-2.19,4.45-1.04,8.08,1.55,4.89,3.28,9.79,5.52,14.39,5.34,10.96,12.24,20.95,19.67,30.6,14.28,18.57,31.08,34.48,51.91,45.27,37.82,19.59,77.29,23.09,118.01,9.86,18.55-6.03,34.67-15.95,48.27-29.95,1.1-1.13,2.04-2.42,3.05-3.64ZM259.53,192.18c-.11-1.05-.13-2.22-.35-3.36-1.16-5.91-4.45-7.45-9.68-4.58-2.88,1.58-3.36,2.45-2.4,5.6.57,1.88,1.41,3.75,2.49,5.38,1.54,2.34,3.26,5.1,6.65,4.13,3.48-1,3.01-4.31,3.3-7.18ZM569.75,208.6c-3.89,1.16-5.92,3.11-5.33,4.9.78,2.4,2.9,2.76,5.68,2.67-.11-2.43-.22-4.75-.35-7.57ZM202,229.26c3.46-3.23,3.2-4.42-.74-6.04.27,2.25.51,4.15.74,6.04Z"/>
  <g>
    <g>
      <path class="cls-2" d="M219.9,473.15c-.88,10.17-1.75,11.74-1.75,21.91-.35,9.11-6.31,13.67-12.09,13.67s-11.22-4.21-12.27-12.8c0-29.09,5.26-56.79,10.17-79.4,3.51-16.48,7.36-30.5,28.04-30.5,2.8,0,5.26,1.23,8.41,3.51,21.21,20.86,32.77,69.06,38.03,97.45l2.1,4.91c.53,1.93.88,3.68.88,5.26,0,7.36-5.26,12.09-11.39,12.09-18.23,0-13.67-32.95-21.03-32.95h-20.86c-3.33-.35-6.13-1.58-8.24-3.16ZM223.75,441.6c0,6.48.7,10.34,5.26,10.34h14.02c1.58,0,1.93-.7,1.93-1.58s-.35-1.75-.53-2.63c-3.51-11.57-7.54-20.16-13.67-32.42-2.28,7.54-7.01,16.3-7.01,26.29Z"/>
      <path class="cls-2" d="M377.63,416.01c0,12.62-10.52,26.11-19.28,35.4-2.1,2.28-3.16,4.38-3.16,6.31,0,7.89,28.39,26.29,28.39,35.93,0,10.17-25.94,11.92-39.26,14.37-6.48,1.23-13.32,1.23-20.33,2.98-1.58.35-2.98.7-4.38.7-1.93,0-10.34-5.08-10.34-9.81,0-7.71,14.55-11.39,20.86-11.39,2.28,0,4.73.88,7.19.88,4.91,0,10.69-2.98,10.69-6.31,0-4.91-11.92-12.62-13.67-12.62-5.08,0-6.31,13.15-15.25,13.15-21.91,0-14.55-41.54-20.16-63.45-1.58-6.31-3.51-15.25-3.51-19.45,0-14.37,28.04-17.88,43.82-18.58,17.18.7,38.38,13.85,38.38,31.9ZM353.27,415.66c0-9.29-6.84-12.27-17.18-12.27-8.24,0-14.9,2.98-14.9,7.19,5.26,11.04,1.93,36.81,9.46,36.81,1.05,0,2.1-.35,3.51-1.05,10.52-6.66,15.6-17.35,19.1-28.74v-1.93Z"/>
      <path class="cls-2" d="M438.1,390.77c31.2,0,46.45,35.23,46.45,69.76,0,21.91-14.55,49.6-40.49,49.6-31.72,0-48.2-41.71-48.2-69.05s12.8-50.3,42.24-50.3ZM460.35,460.71c0-14.02-6.66-45.04-23.13-45.04-11.92,0-17.18,10.87-17.18,24.01,0,9.81,5.96,44.87,22.96,44.87,11.04,0,17.35-11.39,17.35-23.84Z"/>
      <path class="cls-2" d="M509.43,405.85c-8.59-1.05-12.62-6.66-12.62-12.27s4.56-12.09,13.67-12.09h5.43c1.75-.88,3.51-1.4,5.43-1.4,1.75,0,3.68.53,5.26,1.4h39.96c7.36,2.1,10.87,7.19,10.87,12.09,0,5.26-4.03,10.52-11.74,12.27h-27.87c-3.51,1.23-3.68,2.63-3.68,3.86,0,7.89,1.05,14.9,1.58,22.43,0,3.33.18,4.73,2.45,4.73.7,0,1.58,0,2.63-.35,8.59-1.58,13.85-3.33,23.31-3.51,7.36,2.1,10.87,7.19,10.87,12.09,0,5.26-4.03,10.52-11.74,12.27-8.41.17-13.32.17-20.33.53-3.51,0-5.08.88-5.08,5.08,0,5.96.88,11.74.88,18.4,0,4.03,2.98,4.73,6.31,4.73,15.77,0,31.2-7.01,46.97-7.01,8.94,0,13.85,5.96,13.85,11.74,0,5.26-3.86,10.69-11.74,12.44-17.7,1.23-32.78,7.36-53.11,7.36-14.37,0-26.99-5.26-26.99-25.06s-1.58-37.68-3.33-57.84c-.53-7.19-.88-14.55-1.23-21.91Z"/>
    </g>
    <path class="cls-2" d="M345.47,361.5c0-5.18,3.96-10.21,11.89-10.52,19.21,0,37.05-.46,57.47-.46,13.11,0,29.12,1.37,29.12,12.35,0,5.18-4.12,10.21-11.28,10.21-4.88,0-10.06-1.07-15.24-1.07-7.62,0-14.48-.15-21.65-.15-12.96,0-26.07.3-39.18.3-7.47-.92-11.13-5.95-11.13-10.67Z"/>
  </g>
  <text class="cls-1" transform="translate(225.23 579)"><tspan x="0" y="0">a bit of everything</tspan></text>
</svg>