<?xml version="1.0" encoding="utf-8"?>
<!-- Generator: Adobe Illustrator 28.2.0, SVG Export Plug-In . SVG Version: 6.00 Build 0)  -->
<svg version="1.1" id="Layer_1" xmlns="http://www.w3.org/2000/svg" xmlns:xlink="http://www.w3.org/1999/xlink" x="0px" y="0px"
	 viewBox="0 0 800 600" style="enable-background:new 0 0 800 600;" xml:space="preserve">
<style type="text/css">
	.st0{fill:#868B63;}
</style>
<g>
	<path class="st0" d="M526,255.2c4.8-6.3,9.9-12.5,14.4-19c8-11.5,14.9-23.6,21.1-36.2c6.4-12.9,7.8-26.2,7.1-40.2
		c-1.5-33.8-2.7-67.6-0.8-101.4c0.4-7.1,1.5-14.2,2.3-21.3c0.2-1.5,0.4-3.1,1.1-4.3c0.9-1.6,2.1-3.6,3.7-4.2c2.3-0.9,4,1.2,5.2,3.1
		c1.2,1.8,2.1,3.8,3,5.8c4.9,11.9,8.4,24.2,11.3,36.7c3.9,17.2,6.3,34.7,8.5,52.2c3.2,25.5,3.9,51.1,3,76.8c0,1,0.1,1.9,0.2,3.3
		c2.1-0.2,3.8-0.3,5.6-0.5c9.9-1.1,19,0.9,26.3,8c6.3,6.1,12.2,12.7,18.6,18.8c3.8,3.6,8.2,6.8,12.5,9.9c2.3,1.6,5,2.7,7.7,3.4
		c6,1.6,11.3,0.4,15-5c1.6-2.3,2.9-4.8,4.3-7.3c0.7-1.3,1.2-2.9,3.3-1.9c-0.4,10.8-11.4,20.1-21.6,17.9c-4-0.9-7.9-2.7-11.3-4.9
		c-9.2-5.8-16.7-13.7-23.8-21.9c-1.1-1.3-2.3-2.4-3.4-3.7c-9-9.9-20.1-12.2-33.3-9.2c-0.2,1.6-0.3,3.4-0.6,5.2
		c-0.6,3.9-1.1,7.9-1.9,11.8c-1.1,4.8-4.2,7.3-9.2,7.6c-2.6,0.1-5.2,0.6-8.1,0.9c0,4.6-0.4,8.9,0.1,13.1
		c2.5,22.2,5.9,44.2,11.4,65.9c1.2,4.7,2.1,9.4,2.8,14.2c0.9,6-1,8.6-6.8,10c-8.4,2.1-16.9,1.3-25.3,0c-4-0.6-5.4-2.3-5.5-6.4
		c-0.1-2.8,0-5.7,0.2-8.5c1.5-19.1,3.1-38.2,4.5-57.3c1.1-15.4,2.1-30.9,3.1-46.6c-2.1-0.6-3.8-0.9-5.5-1.5c-3.6-1.3-5-4.1-4-7.4
		c1.2-3.7,5.2-6.4,8.4-5.6c2,0.5,3,1.9,3.4,3.9c0.4,1.9,0.7,3.9,1.1,6.3c10.1-0.9,18.3-7,28.3-8.5c0.2-2.3,0.3-4.2,0.4-6.2
		c0.7-21.8,0.3-43.7-2-65.4c-2.9-27.5-6.8-54.8-14.9-81.4c-1.5-4.8-3.2-9.5-5-14.1c-1.2-3-2.4-6.2-5.7-8.8c-0.6,1.4-1.4,2.5-1.5,3.6
		c-1,8.2-2.7,16.5-2.8,24.8c-0.4,24.8-0.3,49.6-0.1,74.4c0.1,10.6,0.4,21.3,1.1,31.9c1.1,14.7-3.4,27.9-9.9,40.7
		c-12.1,23.8-27.5,45.2-46,64.4c-1,1.1-2,2.3-2.7,3.5c-14.9,24.3-36.4,40.4-63,49.7c-24.4,8.5-49.4,10.2-74.9,6.3
		c-33.1-5.1-61-20.2-84.4-43.9c-14.9-15-27.2-31.9-36.8-50.7c-2-4-3.3-8.3-4.6-12.6c-0.7-2.2-0.8-4.6-0.8-6.9c0-3.5,1.5-5.6,4-6.1
		c2.5-0.5,4.3,0.5,5.9,3.6c2.6,5,4.9,10.2,7.5,15.2c16.1,31,38.4,56.3,69.2,73.4c24.4,13.5,50.8,18.7,78.5,16.6
		c23-1.8,44.3-9.2,63.6-21.7c8.9-5.8,17.2-12.5,25.7-18.9c7-5.3,12.1-12.3,15.9-20.2c12.2-25.8,19.1-52.9,17.6-81.6
		c-1.3-26.5-7.9-51.6-21.7-74.5c-17-28.3-42-45.8-73.9-53.6c-18.9-4.6-38-6.7-57.5-5.1c-25.9,2.1-50.6,8.1-72.6,22.6
		c-25.5,16.8-42.9,40-54.1,68.1c-4.8,12.1-8.4,24.6-10.5,37.4c-0.5,3.2-0.5,6.5-0.8,10.3c1.8-0.8,2.8-1.3,3.9-1.7
		c5.3-2.2,9.8-0.4,11.8,4.8c1.5,4,1.9,8.1,0.6,12.2c-1.8,5.6-7.4,7.4-11.7,3.3c-2.5-2.3-4.1-5.6-6-8.5c-0.4-0.6-0.6-1.4-1.2-2.8
		c-1.6,1.6-3,2.8-4,4.2c-6.6,8.6-13.1,17.2-19.4,26c-1.1,1.6-1.5,4.1-1.3,6.1c0.5,6.3,1.5,12.6,2.1,18.9c2.5,25.3,5,50.7,7.4,76.1
		c0.4,3.8-0.2,7.6-0.5,11.4c-0.4,3.6-2.8,5.6-6.2,6.2c-7.4,1.4-14.9,1.8-22.3,0.2c-4.6-1-6.4-2.6-6.5-7.4
		c-0.2-7.8-0.2-15.7,0.3-23.5c0.9-14,2.8-27.9,3.4-41.8c0.4-10.7,3.6-20.2,9.1-29.1c2.5-4.1,5-8.2,7.8-12.2c1.4-2,2.1-3.9,1.8-6.4
		c-1.3-13.1-2.5-26.2-3.5-39.3c-0.4-4.5-0.4-9-0.5-13.5c0-4.4,1.2-8.6,4.2-12c4.8-5.5,7-12.1,7.2-19.3c0.4-24.5,0.4-49-1.8-73.4
		c0-0.5-0.3-0.9-0.8-2.5c-0.4,7.7-0.8,14.3-1.1,20.9c-0.4,9.2-0.7,18.3-1.1,27.4c-0.1,1.6-0.3,3.3-0.9,4.9c-0.4,0.9-1.6,2.1-2.3,2
		c-0.8-0.1-1.8-1.2-2.3-2.1c-0.5-0.8-0.6-1.9-0.6-2.9c-0.3-4-0.8-7.9-0.9-11.9c-0.3-10.3-0.3-20.7-0.5-31c-0.1-2.7-0.3-5.3-1.2-8
		c-0.1,1.4-0.2,2.9-0.2,4.3c-0.3,10.2-0.6,20.3-1,30.5c-0.2,5.8-0.7,11.6-1.1,17.4c-0.1,0.8-0.1,1.8-0.5,2.4
		c-0.5,0.8-1.4,1.7-2.1,1.7c-0.7,0-1.9-0.8-2.2-1.6c-0.6-1.5-1-3.2-1.1-4.8c-0.4-7.8-0.7-15.6-1-23.5c-0.3-9.1-0.6-18.3-1.7-27.4
		c-0.1,1.7-0.2,3.5-0.3,5.2c-0.4,12.5-0.7,25-1.1,37.5c-0.1,3.5-0.5,7-0.9,10.4c-0.1,1-0.4,2-0.8,2.8c-1,1.8-3.1,1.9-3.9,0
		c-0.8-1.8-1.2-3.8-1.3-5.8c-0.4-8-0.6-16-0.9-24c-0.3-6.8-0.7-13.6-1.6-20.4c-0.1,0.5-0.2,1.1-0.2,1.6c-0.5,21.5-1.3,43,0,64.4
		c0.1,1.5,0.4,3,0.4,4.5c0,8.5,3.1,14.9,11,19.2c5.2,2.8,7.3,8.3,7.5,13.9c0.2,7.3-0.1,14.6-0.6,21.9c-0.6,8.5-1.7,16.9-2.5,25.3
		c-0.2,1.8,0,3.6,0,5.8c1.1,0.8,2.3,1.5,3.4,2.5c2.7,2.4,2.9,7.3,0.6,10c-2,2.3-6.1,1.4-7.2-1.8c-0.7-2.2-0.7-4.5-1.1-7.1
		c-3.8-0.6-7.3,0.2-10.5,1.9c-5.1,2.7-10.2,5.6-15.1,8.8c-14.3,9.2-29.6,11.5-45.9,7.2c-12.2-3.2-20-11.4-25.7-22.1
		c-0.4-0.8-0.3-1.8-0.5-3.5c1.4,0.8,2.3,1.1,2.9,1.7c0.9,1,1.6,2.1,2.3,3.3c9.8,16.3,24.8,21.1,42.8,19.1c9.2-1,17.1-5.1,24.7-10.1
		c3.5-2.3,6.9-4.7,10.7-6.4c4.5-1.9,9.4-3.1,14.7-4.7c0.4-3.8,0.9-8.2,1.3-12.6c0.9-9.9,1.8-19.9,2.6-29.8c0.2-2.8,0-5.7-0.1-8.5
		c-0.3-5.7-2.6-10.2-7.8-13.1c-6.6-3.7-10.2-9.3-10.6-17c-0.3-6.3-1.2-12.6-1.3-18.9c-0.4-21.8-0.2-43.6,1.6-65.4
		c0.2-2.1,0-4.3,2.1-5.9c2.7,0.5,2.9,2.7,3.1,4.6c0.7,7.8,1.4,15.6,1.8,23.4c0.4,6.2,0.4,12.3,0.6,18.5c0.1,2.1,0.5,4.2,1.3,6.3
		c0.2-7.9,0.2-15.9,0.5-23.9c0.3-8.3,0.9-16.6,1.4-24.9c0.1-1.7-0.1-4.2,2.4-4.3c2.6-0.1,2.9,2.4,3.1,4.3c0.6,6.5,1.3,12.9,1.5,19.4
		c0.3,9.5,0.3,19,0.4,28.5c0,1.9,0.4,3.8,1.3,5.7c0.4-12.7,0.8-25.5,1.3-38.2c0.2-4.8,0.7-9.6,1.1-14.4c0.1-1.2,0.3-2.4,0.8-3.4
		c0.4-0.7,1.3-1.4,2.1-1.6c0.5-0.1,1.7,0.7,1.8,1.3c0.6,2.2,1.3,4.5,1.3,6.8c0.5,14.5,0.8,29,1.1,43.5c0,1.7,0,3.3,0.6,5
		c0.3-4.3,0.7-8.6,0.9-12.9c0.7-13.1,1.4-26.3,2.2-39.4c0.1-1.3,0.4-2.6,0.9-3.8c0.3-0.6,1.3-1.3,1.9-1.2c0.6,0,1.6,0.8,1.8,1.4
		c0.6,2.2,1.1,4.5,1.3,6.8c2.6,26.7,2.6,53.5,2,80.4c-0.2,7.7-2.3,14.8-7.6,20.6c-2.6,2.9-3.7,6.3-3.5,10.1c0.5,9.8,1,19.6,1.7,29.4
		c0.5,6.9,1.2,13.8,1.9,21.5c1-1.2,1.5-1.7,1.9-2.3c6.3-9.5,13.1-18.4,21.2-26.4c1-0.9,1.9-2.5,1.9-3.8c-0.5-10.5,2.3-20.5,4.9-30.4
		c5.5-20.8,14.4-40.1,27.4-57.3c21.4-28.4,49.9-45.6,84.7-52.1c16.2-3,32.6-4.6,49.2-3.2c24.4,2,48,6.9,69.4,19.9
		c16.2,9.8,29,22.7,38.8,38.8c12.6,20.7,19.5,43.2,22.1,67.2c3.1,28.6-1.6,56-12,82.7c-0.7,1.8-1.4,3.7-2.1,5.5
		C525.4,254.8,525.7,255.1,526,255.2L526,255.2z M573.7,220.1c-0.2,1.9-0.5,3.9-0.6,5.9c-0.7,12-1.3,23.9-2.2,35.9
		c-1.1,16.1-2.5,32.2-3.7,48.3c-0.5,6.3-1.1,12.6-1.4,18.9c-0.3,5.8,0.4,6.5,6.3,7c3.5,0.3,7,0.6,10.5,0.5c3.3-0.1,6.7-0.3,9.9-1
		c4.2-0.8,5-2.2,4.6-6.3c-0.3-3-0.8-5.9-1.5-8.8c-5.6-23.1-10-46.5-12.3-70.2c-0.5-4.5-0.6-9-0.5-13.4c0.1-3.7,1.2-4.5,4.9-5.1
		c2.3-0.3,4.6-0.4,7-0.7c2.5-0.3,4.4-1.6,5.3-4c2-5.3,2.6-10.8,1.9-17.1C592.3,213.4,583.3,216.7,573.7,220.1L573.7,220.1z
		 M215.4,228c-0.5-0.1-1-0.2-1.5-0.3c-3.9,7.1-8,14.1-11.7,21.3c-1.3,2.6-2,5.6-2.3,8.6c-0.8,6.9-1.1,13.9-1.7,20.9
		c-0.9,10.4-1.9,20.9-2.6,31.3c-0.4,6.6-0.5,13.3-0.4,19.9c0.1,4.2,1.2,5.1,5.3,5.8c6.3,1.2,12.6,0.8,18.9-0.1c3-0.4,4.9-2,5.1-5.1
		c0.2-3.1,0.6-6.3,0.3-9.4c-2.2-24.1-4.6-48.3-7-72.4C217.1,241.5,216.2,234.8,215.4,228L215.4,228z M499,288.2
		c-0.3-0.2-0.6-0.5-0.9-0.7c-2.6,1.8-5.1,3.7-7.7,5.5c-21,15.1-43.9,25.5-69.8,28.7c-26.7,3.3-52.5-0.2-77-11.4
		c-28.7-13.1-50.7-33.8-68.4-59.5c-6.6-9.6-12-19.9-16.9-30.5c-1.1-2.4-1.8-5.4-4.7-6.7c-1.7,2.9-2.2,4.4-1,8.1
		c1.6,4.9,3.3,9.8,5.5,14.4c5.3,11,12.2,20.9,19.7,30.6c14.3,18.6,31.1,34.5,51.9,45.3c37.8,19.6,77.3,23.1,118,9.9
		c18.5-6,34.7-16,48.3-30C497,290.7,497.9,289.4,499,288.2L499,288.2z M259.5,192.2c-0.1-1.1-0.1-2.2-0.4-3.4
		c-1.2-5.9-4.4-7.4-9.7-4.6c-2.9,1.6-3.4,2.4-2.4,5.6c0.6,1.9,1.4,3.8,2.5,5.4c1.5,2.3,3.3,5.1,6.7,4.1
		C259.7,198.4,259.3,195,259.5,192.2L259.5,192.2z M569.8,208.6c-3.9,1.2-5.9,3.1-5.3,4.9c0.8,2.4,2.9,2.8,5.7,2.7
		C570,213.7,569.9,211.4,569.8,208.6L569.8,208.6z M202,229.3c3.5-3.2,3.2-4.4-0.7-6C201.5,225.5,201.8,227.4,202,229.3z"/>
	<g>
		<g>
			<path class="st0" d="M219.9,473.1c-0.9,10.2-1.8,11.7-1.8,21.9c-0.4,9.1-6.3,13.7-12.1,13.7s-11.2-4.2-12.3-12.8
				c0-29.1,5.3-56.8,10.2-79.4c3.5-16.5,7.4-30.5,28-30.5c2.8,0,5.3,1.2,8.4,3.5c21.2,20.9,32.8,69.1,38,97.5l2.1,4.9
				c0.5,1.9,0.9,3.7,0.9,5.3c0,7.4-5.3,12.1-11.4,12.1c-18.2,0-13.7-33-21-33h-20.9C224.8,476,222,474.7,219.9,473.1L219.9,473.1z
				 M223.8,441.6c0,6.5,0.7,10.3,5.3,10.3h14c1.6,0,1.9-0.7,1.9-1.6s-0.4-1.8-0.5-2.6c-3.5-11.6-7.5-20.2-13.7-32.4
				C228.5,422.9,223.8,431.6,223.8,441.6z"/>
			<path class="st0" d="M377.6,416c0,12.6-10.5,26.1-19.3,35.4c-2.1,2.3-3.2,4.4-3.2,6.3c0,7.9,28.4,26.3,28.4,35.9
				c0,10.2-25.9,11.9-39.3,14.4c-6.5,1.2-13.3,1.2-20.3,3c-1.6,0.4-3,0.7-4.4,0.7c-1.9,0-10.3-5.1-10.3-9.8
				c0-7.7,14.5-11.4,20.9-11.4c2.3,0,4.7,0.9,7.2,0.9c4.9,0,10.7-3,10.7-6.3c0-4.9-11.9-12.6-13.7-12.6c-5.1,0-6.3,13.1-15.2,13.1
				c-21.9,0-14.5-41.5-20.2-63.5c-1.6-6.3-3.5-15.2-3.5-19.5c0-14.4,28-17.9,43.8-18.6C356.4,384.8,377.6,398,377.6,416L377.6,416z
				 M353.3,415.7c0-9.3-6.8-12.3-17.2-12.3c-8.2,0-14.9,3-14.9,7.2c5.3,11,1.9,36.8,9.5,36.8c1,0,2.1-0.4,3.5-1
				c10.5-6.7,15.6-17.4,19.1-28.7L353.3,415.7L353.3,415.7z"/>
			<path class="st0" d="M438.1,390.8c31.2,0,46.5,35.2,46.5,69.8c0,21.9-14.5,49.6-40.5,49.6c-31.7,0-48.2-41.7-48.2-69
				S408.7,390.8,438.1,390.8L438.1,390.8z M460.4,460.7c0-14-6.7-45-23.1-45c-11.9,0-17.2,10.9-17.2,24c0,9.8,6,44.9,23,44.9
				C454,484.5,460.4,473.2,460.4,460.7z"/>
			<path class="st0" d="M509.4,405.9c-8.6-1-12.6-6.7-12.6-12.3s4.6-12.1,13.7-12.1h5.4c1.8-0.9,3.5-1.4,5.4-1.4
				c1.8,0,3.7,0.5,5.3,1.4h40c7.4,2.1,10.9,7.2,10.9,12.1c0,5.3-4,10.5-11.7,12.3h-27.9c-3.5,1.2-3.7,2.6-3.7,3.9
				c0,7.9,1,14.9,1.6,22.4c0,3.3,0.2,4.7,2.5,4.7c0.7,0,1.6,0,2.6-0.4c8.6-1.6,13.8-3.3,23.3-3.5c7.4,2.1,10.9,7.2,10.9,12.1
				c0,5.3-4,10.5-11.7,12.3c-8.4,0.2-13.3,0.2-20.3,0.5c-3.5,0-5.1,0.9-5.1,5.1c0,6,0.9,11.7,0.9,18.4c0,4,3,4.7,6.3,4.7
				c15.8,0,31.2-7,47-7c8.9,0,13.8,6,13.8,11.7c0,5.3-3.9,10.7-11.7,12.4c-17.7,1.2-32.8,7.4-53.1,7.4c-14.4,0-27-5.3-27-25.1
				s-1.6-37.7-3.3-57.8C510.1,420.5,509.8,413.2,509.4,405.9L509.4,405.9z"/>
		</g>
		<path class="st0" d="M345.5,361.5c0-5.2,4-10.2,11.9-10.5c19.2,0,37-0.5,57.5-0.5c13.1,0,29.1,1.4,29.1,12.4
			c0,5.2-4.1,10.2-11.3,10.2c-4.9,0-10.1-1.1-15.2-1.1c-7.6,0-14.5-0.1-21.6-0.1c-13,0-26.1,0.3-39.2,0.3
			C349.1,371.2,345.5,366.2,345.5,361.5L345.5,361.5z"/>
	</g>
	<g>
		<path class="st0" d="M231,558c0.4-0.5,0.9-0.8,1.5-0.8c0.6,0,1,0.3,1.4,0.8c0.4,0.5,0.4,1.1,0,1.8c-0.4,0.6-0.8,1.3-1.2,2
			c-0.5,0.7-1,1.4-1.7,2.3s-1.4,1.5-2,2.1c-0.7,0.6-1.4,1.1-2.3,1.6c-0.8,0.5-1.6,0.7-2.4,0.7c-0.8,0-1.6-0.2-2.5-0.5
			c-2.2-1.1-3.5-3.1-3.7-5.9c-4.2,5.7-8.1,6.9-11.7,3.6c-1.1-1-1.8-2.2-2.1-3.6c-0.3-1.3-0.3-2.6,0.1-3.9c0.4-1.3,1-2.5,1.8-3.8
			c0.8-1.3,1.9-2.4,3.1-3.3c1.2-0.9,2.5-1.7,3.9-2.3c1.3-0.6,2.7-0.9,4.2-0.9c1.4,0,2.8,0.4,4,1c0.2-0.5,0.5-1.1,0.8-1.6
			c0.4-0.6,0.9-0.9,1.4-0.9c0.5,0,1,0.3,1.4,0.9c0.4,0.6,0.4,1.2,0.2,1.8c-0.1,0.2-0.4,0.7-0.7,1.4c-0.3,0.7-0.6,1.3-0.8,1.7
			c-3.1,7.3-3,11.3,0.3,12C226,564.7,228.3,562.7,231,558z M212.5,562.9c1.5-1.1,2.8-2.5,4-4.4c1.2-1.8,2.4-4,3.6-6.6
			c-1.9-1-3.8-1.1-5.9,0c-2,1-3.7,2.5-5,4.5c-1,1.5-1.4,3.3-1,5.2c0.3,1.9,1.3,2.5,2.8,2C211.4,563.5,211.9,563.2,212.5,562.9z"/>
		<path class="st0" d="M270.8,556.8c0.5,0.5,0.8,1,0.8,1.6c0,0.6-0.3,1.1-0.9,1.4c-0.5,0.4-1.1,0.4-1.7,0c-1.5-0.9-3-1.4-4.7-1.4
			c-0.3,0.6-0.7,1.3-1.1,1.9c-2.6,4.2-5.3,6.6-8,7.2c-1.3,0.3-2.4,0.1-3.2-0.5c-0.9-0.6-1.3-1.6-1.3-2.9c0-1.5,0.8-2.9,2.1-4.2
			c1.4-1.3,2.9-2.4,4.6-3.2c1.4-0.7,2.8-1.2,4.2-1.5c0.4-0.9,0.6-1.5,0.5-1.8c-0.4-3.7-2.6-3.4-6.8,0.9c-1.6,1.7-2.9,3.3-3.9,4.7
			c-1.7,2.5-3.9,6.2-6.6,11.2c-0.5,0.9-1.2,1.1-2.1,0.7c-0.9-0.4-1.3-1.1-1-2c0.9-4.3,2-8.7,3.5-13.3c1.5-4.6,3.3-9.8,5.4-15.7
			c2.1-5.9,3.7-10.2,4.6-13c0.2-0.6,0.6-1,1.2-1.1c0.6-0.1,1.2,0,1.6,0.4c0.4,0.4,0.6,0.9,0.4,1.6c-0.9,2.7-2.5,7.3-4.8,13.8
			c-2.3,6.5-4,11.4-5.1,15c3-4.5,6.1-7.3,9.3-8.5c1.3-0.5,2.7-0.6,4.1-0.1c1.4,0.5,2.5,1.4,3.1,2.7c0.6,1.3,0.8,2.8,0.4,4.5
			C267.5,555.3,269.2,555.8,270.8,556.8z M254.4,564.2c0.3,0.4,0.9,0.2,1.8-0.8c0.9-0.9,1.9-2.1,2.9-3.7c-1,0.6-2.2,1.4-3.4,2.3
			C254.5,563.1,254,563.8,254.4,564.2z"/>
		<path class="st0" d="M282.7,555.7c0.4-0.5,1-0.8,1.6-0.7c0.7,0.1,1.2,0.3,1.4,0.8c0.3,0.5,0.2,1-0.1,1.7c-0.4,0.5-0.8,1.1-1.2,1.5
			c-0.4,0.5-0.9,1.2-1.6,2c-0.7,0.9-1.3,1.6-2,2.3c-0.6,0.6-1.4,1.3-2.2,2.1c-0.8,0.8-1.6,1.3-2.4,1.7c-0.8,0.4-1.5,0.6-2.3,0.9
			s-1.5,0.2-2.2-0.1c-0.7-0.3-1.4-0.8-2-1.5c-0.5-0.7-0.9-1.5-1-2.6c-0.1-1-0.1-1.9,0.1-2.6c0.2-0.7,0.4-1.6,0.7-2.7
			c0.3-1,0.6-2,1-3c0.4-1,0.9-2.2,1.4-3.5c0.6-1.3,1-2.3,1.2-2.9c0.3-0.7,0.7-1.1,1.4-1.2c0.7-0.1,1.2,0,1.7,0.5
			c0.5,0.4,0.5,1,0.3,1.6c-0.2,0.5-0.7,1.7-1.6,3.7c-0.9,2-1.5,3.6-1.9,4.9c-0.4,1.3-0.7,2.6-0.8,3.9c-0.1,1.2,0.1,1.9,0.8,2
			c0.6,0.1,1.4-0.2,2.3-0.9c0.9-0.6,1.8-1.4,2.8-2.4c0.9-1,1.6-1.8,2.2-2.4C281,557.9,281.7,557,282.7,555.7z M277.1,543.5
			c-0.5,0-0.9-0.1-1.2-0.5s-0.5-0.8-0.5-1.2c0-0.5,0.1-0.9,0.4-1.2s0.8-0.5,1.3-0.5h0.1c0.5,0,0.9,0.1,1.2,0.5s0.5,0.8,0.6,1.2
			c0,0.5-0.2,0.9-0.5,1.2c-0.3,0.3-0.8,0.5-1.3,0.5C277.2,543.5,277.2,543.5,277.1,543.5z"/>
		<path class="st0" d="M301.4,556c0.4-0.5,1-0.8,1.6-0.7s1.2,0.3,1.4,0.8c0.3,0.5,0.2,1-0.1,1.7c-0.5,0.6-1.5,2-2.9,4.2
			c-1.4,2.2-2.7,3.9-3.9,5.3c-1.1,1.3-2.4,2.5-3.8,3.4c-1.1,0.8-2.3,1.4-3.7,1.8c-1.3,0.5-2.7,0.6-4.2,0.4c-1.5-0.2-2.5-0.9-3.3-2.1
			c-0.3-0.5-0.6-1.1-0.8-1.8c-0.2-0.7-0.3-1.4-0.4-2.2c0-0.8-0.1-1.5-0.1-2.2c0-0.7,0.1-1.5,0.3-2.5c0.2-1,0.3-1.8,0.4-2.4
			c0.1-0.6,0.3-1.4,0.6-2.5c0.3-1.1,0.5-1.8,0.6-2.2c0.1-0.4,0.3-1.1,0.7-2.2s0.5-1.7,0.5-1.8c1-3.2,1.9-6.2,2.8-9c0,0-0.6,0-1.6,0
			c-1,0-1.8,0-2.3,0c-0.7,0-1.2-0.3-1.5-0.9c-0.3-0.6-0.3-1.1,0-1.7c0.3-0.6,0.8-0.9,1.5-0.9c0.5,0,2.2,0,5,0.1
			c1.7-5.4,3.2-10.1,4.6-14.2c0.2-0.7,0.7-1.1,1.3-1.2c0.7-0.1,1.2,0,1.7,0.5c0.5,0.4,0.6,1,0.3,1.6c-0.5,1.6-1.3,3.9-2.3,6.8
			c-1,3-1.8,5.1-2.2,6.5l9.6,0.1c0.7,0,1.2,0.3,1.5,0.9c0.3,0.6,0.3,1.2,0,1.7c-0.3,0.6-0.8,0.9-1.5,0.9c-5.7,0-9.3-0.1-10.8-0.1
			c-2.1,6.4-3.6,11.9-4.6,16.6c0,0.1,0,0.2-0.1,0.4c-1.4,6.2-0.9,9.7,1.4,10.4c1.5,0.5,3.7-0.7,6.6-3.5c1.1-1.1,2.6-3,4.3-5.5
			C300.1,557.9,301.1,556.4,301.4,556z"/>
		<path class="st0" d="M339.9,557.4c0.5-0.5,1-0.6,1.6-0.4c0.6,0.2,1,0.6,1.2,1.2c0.2,0.6,0,1.2-0.4,1.7c-1.1,1.3-2.7,2.1-4.6,2.4
			c-1.9,0.3-3.8,0.2-5.5-0.3c-2.2,3.5-4.8,5.7-7.7,6.6c-2.3,0.7-4.3,0.4-6.1-0.8c-1.8-1.2-2.9-3-3.3-5.4c-0.3-1.5-0.2-3.1,0.3-4.8
			c0.5-1.8,1.1-3.4,2.1-4.9c0.9-1.5,2.1-2.8,3.4-3.9c1.3-1.1,2.8-1.7,4.3-1.9c1.5-0.2,3.1,0.2,4.7,1.2c0.5,0.3,1,0.6,1.5,1
			c2.9,2.6,3.8,5.8,2.5,9.5C336.6,559.2,338.6,558.8,339.9,557.4z M328.7,560.8l0.2-0.2c-2-1.1-3.4-2.6-4.3-4.4
			c-0.9-1.8-0.9-3.7-0.1-5.8c-1.4,0.5-2.7,1.6-3.9,3.2c-1.2,1.7-1.9,3.3-2.2,4.8c-0.3,1.3-0.2,2.5,0.2,3.7c0.4,1.2,1.1,2.1,2.1,2.7
			c1,0.6,2.3,0.5,3.9-0.1C325.9,564.1,327.3,562.8,328.7,560.8z M327.6,551.9c-0.7,0.9-0.7,1.8-0.1,2.7c0.6,1,1.7,1.8,3.2,2.7
			c0.1-0.4,0.2-0.8,0.2-1.1c0.1-0.8-0.1-2-0.9-3.5C329.4,551.2,328.5,550.9,327.6,551.9z"/>
		<path class="st0" d="M358.5,525.2c1.7,0.2,3,0.9,4,1.9c1,1.1,1.4,2.4,1.2,4.1c-0.1,0.7-0.4,1.2-1,1.4c-0.6,0.3-1.1,0.3-1.7,0
			c-0.5-0.3-0.8-0.8-0.7-1.4c0.1-1-0.3-1.8-1.1-2.3c-0.8-0.5-1.7-0.6-2.7-0.2c-0.5,0.2-1.1,0.5-1.5,1c-0.5,0.5-0.9,1.1-1.4,2
			c-0.4,0.8-0.7,1.5-0.9,1.8c-0.2,0.4-0.4,1-0.8,1.9c-0.4,1-0.8,2-1.2,3.2c2.6,0,5.1,0,7.4-0.1c0.7,0,1.2,0.3,1.5,0.9
			c0.3,0.6,0.3,1.1,0,1.7c-0.3,0.6-0.8,0.9-1.5,0.9c-2.5,0-5.3,0.1-8.5,0.1c-0.2,0.5-0.5,1.4-0.8,2.5c-0.4,1.1-0.6,1.8-0.8,2.3
			c-3,9.3-5.7,18.3-7.9,27.1c-0.2,0.7-0.6,1.1-1.2,1.2c-0.6,0.1-1.2,0-1.7-0.5c-0.5-0.4-0.7-1-0.5-1.7c2-7.7,4.2-15.6,6.8-23.6
			c0.3-0.9,0.7-2.1,1.2-3.8c0.5-1.7,0.9-2.8,1.1-3.5c-0.2,0-0.7,0-1.4,0s-1.2,0-1.6,0c-0.7,0-1.2-0.4-1.5-0.9
			c-0.3-0.6-0.3-1.1,0-1.7c0.3-0.6,0.8-0.9,1.5-0.9c0.2,0,1.5,0,4.1,0c1-3,2.1-5.6,3.3-7.7C352.4,526.6,355.2,524.7,358.5,525.2z"/>
		<path class="st0" d="M385.7,555.6c0.4-0.5,0.9-0.7,1.5-0.5c0.6,0.2,1,0.6,1.1,1.2c0.2,0.6,0.1,1.1-0.2,1.7c-0.5,0.7-1,1.3-1.5,1.8
			c-0.4,0.5-1,1.2-1.6,1.9c-0.7,0.8-1.3,1.4-1.9,1.9c-0.6,0.5-1.3,1.1-2,1.7c-0.7,0.6-1.5,1.1-2.2,1.4c-0.8,0.4-1.5,0.7-2.3,0.9
			c-0.8,0.2-1.6,0.3-2.4,0.3c-0.8,0-1.7-0.2-2.5-0.5c-1.8-0.7-3.2-1.8-4-3.2c-0.9-1.4-1.2-3-1.1-4.7c0.1-1.7,0.5-3.4,1.2-5
			c0.6-1.7,1.5-3.2,2.5-4.5c0.6-0.7,1.4-1.4,2.5-2.1c1-0.7,2.1-1.2,3.3-1.6c1.1-0.4,2.2-0.3,3.1,0.1c1,0.5,1.6,1.4,1.8,2.7
			c0.3,1.5,0.2,2.8-0.5,4.1c-0.6,1.3-1.6,2.3-2.8,3c-1.2,0.8-2.5,1.4-3.9,1.8c-1.4,0.5-2.7,0.7-4,0.8c-0.2,1.4,0.1,2.6,0.8,3.6
			c0.8,1.1,1.9,1.8,3.2,1.9c1.3,0.1,2.6-0.2,3.7-0.9c0.4-0.2,0.8-0.5,1.2-0.8s0.8-0.6,1.1-0.8c0.3-0.2,0.7-0.6,1.1-1
			c0.4-0.4,0.8-0.8,1-1c0.2-0.2,0.6-0.6,1-1.1c0.5-0.5,0.8-0.9,0.9-1c0.1-0.2,0.5-0.5,1-1.2C385.3,556,385.6,555.6,385.7,555.6z
			 M377.7,549.8c-0.7-1.2-1.9-0.9-3.5,0.9c-1.6,1.8-2.7,3.3-3.2,4.6c0,0.1-0.1,0.3-0.1,0.3c2.3-0.4,4.1-1.2,5.4-2.5
			c0.4-0.5,0.8-1,1.2-1.7C377.8,550.8,377.9,550.2,377.7,549.8z"/>
		<path class="st0" d="M387,564.6c-0.4-1.8-0.7-4.5-1-7.9c-0.3-3.5-0.5-5.8-0.6-7c-0.1-0.7,0.1-1.2,0.6-1.6c0.5-0.4,1-0.6,1.6-0.4
			c0.6,0.1,0.9,0.5,1.1,1.2c0.2,1,0.4,2.1,0.5,3.2c0.1,1.1,0.2,2.4,0.3,4c0.1,1.5,0.2,2.6,0.3,3.2c0,0.1,0,0.5,0,1.2
			c0,0.7,0.1,1.3,0.1,1.8c0,0.5,0.1,1.1,0.3,1.6s0.3,0.9,0.5,1c-0.1-0.1-0.2-0.1-0.3-0.1l0.4-0.4c0.1-0.1,0.2-0.2,0.3-0.4
			c0.1-0.2,0.2-0.3,0.3-0.5c0.1-0.2,0.2-0.3,0.3-0.4c1.2-1.5,3.1-4.2,5.5-7.9c2.4-3.7,4.4-6.4,5.9-8.3c0.4-0.5,0.9-0.7,1.5-0.5
			s1,0.6,1.2,1.2c0.2,0.6,0.1,1.2-0.3,1.8c-1.3,1.5-2.9,3.8-4.8,6.8c-1.9,3-3.2,4.9-3.7,5.6c-0.1,0.2-0.5,0.8-1.1,1.7
			c-0.6,0.9-1.1,1.6-1.5,2.2c-0.4,0.5-0.9,1.1-1.5,1.7c-0.6,0.6-1.2,1-1.8,1.2C389.2,569.3,387.8,568,387,564.6z"/>
		<path class="st0" d="M424.4,555.6c0.4-0.5,0.9-0.7,1.5-0.5c0.6,0.2,1,0.6,1.1,1.2c0.2,0.6,0.1,1.1-0.2,1.7c-0.5,0.7-1,1.3-1.5,1.8
			c-0.4,0.5-1,1.2-1.6,1.9c-0.7,0.8-1.3,1.4-1.9,1.9c-0.6,0.5-1.3,1.1-2,1.7c-0.7,0.6-1.5,1.1-2.2,1.4c-0.8,0.4-1.5,0.7-2.3,0.9
			c-0.8,0.2-1.6,0.3-2.4,0.3c-0.8,0-1.7-0.2-2.5-0.5c-1.8-0.7-3.2-1.8-4-3.2c-0.9-1.4-1.2-3-1.1-4.7c0.1-1.7,0.5-3.4,1.2-5
			c0.6-1.7,1.5-3.2,2.5-4.5c0.6-0.7,1.4-1.4,2.5-2.1c1-0.7,2.1-1.2,3.3-1.6s2.2-0.3,3.1,0.1c1,0.5,1.6,1.4,1.8,2.7
			c0.3,1.5,0.2,2.8-0.5,4.1c-0.6,1.3-1.6,2.3-2.8,3c-1.2,0.8-2.5,1.4-3.9,1.8c-1.4,0.5-2.7,0.7-4,0.8c-0.2,1.4,0.1,2.6,0.8,3.6
			c0.8,1.1,1.9,1.8,3.2,1.9c1.3,0.1,2.6-0.2,3.7-0.9c0.4-0.2,0.8-0.5,1.2-0.8c0.4-0.3,0.8-0.6,1.1-0.8s0.7-0.6,1.1-1
			c0.4-0.4,0.8-0.8,1-1c0.2-0.2,0.6-0.6,1-1.1s0.8-0.9,0.9-1c0.1-0.2,0.5-0.5,1-1.2C424,556,424.3,555.6,424.4,555.6z M416.4,549.8
			c-0.7-1.2-1.9-0.9-3.5,0.9c-1.6,1.8-2.7,3.3-3.2,4.6c0,0.1-0.1,0.3-0.1,0.3c2.3-0.4,4.1-1.2,5.4-2.5c0.4-0.5,0.8-1,1.2-1.7
			S416.6,550.2,416.4,549.8z"/>
		<path class="st0" d="M440.6,547.8c0.7,0.2,1.1,0.6,1.2,1.2c0.1,0.6,0,1.2-0.5,1.7c-0.4,0.5-1,0.6-1.6,0.4
			c-5.4-1.5-10.1,2.6-14.2,12.4c-0.5,1.5-1,2.7-1.5,3.8c-0.2,0.6-0.7,1-1.3,1.1c-0.7,0.1-1.2,0-1.7-0.4c-0.5-0.4-0.5-0.9-0.3-1.6
			c0.5-1.3,1-2.5,1.4-3.6c0.8-2,2.5-7.5,5.3-16.2c0.2-0.7,0.6-1.1,1.2-1.2c0.6-0.1,1.2,0,1.6,0.4c0.5,0.4,0.6,1,0.3,1.6
			c-0.2,0.8-0.5,1.9-1,3.1C433,547.6,436.6,546.6,440.6,547.8z"/>
		<path class="st0" d="M471.6,561.8c0.6-0.2,1.2-0.1,1.6,0.3c0.4,0.5,0.6,1,0.5,1.7c-0.1,0.7-0.5,1.1-1.2,1.3
			c-6.2,2.3-10.8,4.2-13.9,5.7c-0.7,2.3-1.4,4.3-2,6.1c-0.1,0.2-0.3,0.6-0.5,1.2c-0.4,1.1-0.7,2-0.9,2.6c-0.3,0.7-0.6,1.6-1.2,2.9
			c-0.5,1.3-1,2.3-1.5,3.1s-1,1.7-1.7,2.7c-0.7,1-1.4,1.7-2.1,2.3c-0.7,0.5-1.5,1-2.4,1.3c-0.9,0.3-1.8,0.3-2.7,0.1
			c-1.6-0.4-2.7-1.2-3.2-2.6c-0.5-1.4-0.6-2.9-0.1-4.6c0.5-1.7,1-3.3,1.7-4.8s1.4-2.7,2.2-3.6c2.8-3.4,6.7-6.4,11.7-9.1
			c0.3-1,0.5-1.6,0.6-1.9c0.5-1.6,1.3-4.2,2.3-7.7c-1,1.4-2,2.5-2.9,3.5c-0.4,0.5-0.8,0.9-1.1,1.2c-0.3,0.4-0.8,0.8-1.3,1.2
			c-0.5,0.5-1,0.8-1.4,1.1c-0.4,0.3-0.9,0.6-1.5,1c-0.6,0.3-1.1,0.6-1.6,0.6c-0.5,0.1-1,0.2-1.6,0.2s-1.2,0-1.7-0.3
			c-1.7-0.5-2.7-1.7-3-3.5s-0.1-3.6,0.5-5.3c0.7-1.8,1.4-3.8,2.3-6c0.9-2.2,1.4-3.7,1.5-4.5c0.1-0.5,0.4-0.9,1-1.1
			c0.5-0.2,1.1-0.1,1.5,0.2c0.5,0.3,0.7,0.7,0.6,1.3c0,0.5-0.3,1.3-0.8,2.5c-0.5,1.2-0.9,2.5-1.4,3.8c-0.5,1.3-1,2.6-1.4,4
			c-0.4,1.3-0.6,2.5-0.6,3.4c0,1,0.3,1.6,0.9,1.9c1.7,0.7,4.4-1.4,8.1-6.1c0.2-0.2,0.3-0.4,0.4-0.5c2.2-2.9,4.4-6.2,6.5-9.9
			c0.4-0.5,0.8-0.8,1.4-0.8c0.6,0,1.1,0.3,1.4,0.7c0.2,0.2,0.3,0.5,0.3,0.8c0,0.3,0,0.6-0.1,1c-0.5,1.7-1.3,4.4-2.4,8.3
			s-1.9,6.7-2.5,8.7C462.6,565.2,466.5,563.7,471.6,561.8z M448.1,586.9c2.2-3.1,4.3-7.6,6.1-13.5c-2.2,1.5-4.2,3-5.8,4.6
			c-2.5,2.5-4,4.8-4.6,6.9c-0.7,2.5-0.6,4.1,0.3,4.7C445.1,590.1,446.5,589.3,448.1,586.9z"/>
		<path class="st0" d="M490.3,556c0.4-0.5,1-0.8,1.6-0.7s1.2,0.3,1.4,0.8s0.2,1-0.1,1.7c-0.5,0.6-1.5,2-2.9,4.2
			c-1.4,2.2-2.7,3.9-3.9,5.3c-1.1,1.3-2.4,2.5-3.8,3.4c-1.1,0.8-2.3,1.4-3.7,1.8c-1.3,0.5-2.7,0.6-4.2,0.4c-1.5-0.2-2.5-0.9-3.3-2.1
			c-0.3-0.5-0.6-1.1-0.8-1.8c-0.2-0.7-0.3-1.4-0.4-2.2c0-0.8-0.1-1.5-0.1-2.2c0-0.7,0.1-1.5,0.3-2.5c0.2-1,0.3-1.8,0.4-2.4
			c0.1-0.6,0.3-1.4,0.6-2.5c0.3-1.1,0.5-1.8,0.6-2.2c0.1-0.4,0.3-1.1,0.7-2.2c0.3-1.1,0.5-1.7,0.5-1.8c1-3.2,1.9-6.2,2.8-9
			c0,0-0.6,0-1.6,0c-1,0-1.8,0-2.3,0c-0.7,0-1.2-0.3-1.5-0.9c-0.3-0.6-0.3-1.1,0-1.7c0.3-0.6,0.8-0.9,1.5-0.9c0.5,0,2.2,0,5,0.1
			c1.7-5.4,3.2-10.1,4.6-14.2c0.2-0.7,0.7-1.1,1.3-1.2c0.7-0.1,1.2,0,1.7,0.5c0.5,0.4,0.6,1,0.3,1.6c-0.5,1.6-1.3,3.9-2.3,6.8
			c-1,3-1.8,5.1-2.2,6.5l9.6,0.1c0.7,0,1.2,0.3,1.5,0.9c0.3,0.6,0.3,1.2,0,1.7c-0.3,0.6-0.8,0.9-1.5,0.9c-5.7,0-9.3-0.1-10.8-0.1
			c-2.1,6.4-3.6,11.9-4.6,16.6c0,0.1,0,0.2-0.1,0.4c-1.4,6.2-0.9,9.7,1.4,10.4c1.5,0.5,3.7-0.7,6.6-3.5c1.1-1.1,2.6-3,4.3-5.5
			C489,557.9,490,556.4,490.3,556z"/>
		<path class="st0" d="M512.1,558.3c0.6-0.7,1.3-0.8,2.2-0.1c0.8,0.7,1,1.4,0.4,2.2c-0.6,1-1.3,1.9-2.1,2.9c-0.8,1-1.8,2-2.8,3.1
			c-1.1,1-2.2,1.9-3.4,2.5c-1.2,0.6-2.4,0.8-3.4,0.5c-0.6-0.1-1.2-0.3-1.6-0.5c-0.4-0.3-0.8-0.6-1-1.1c-0.2-0.5-0.4-0.9-0.4-1.4
			c-0.1-0.5-0.1-1,0-1.6c0.1-0.6,0.2-1.2,0.3-1.7c0.1-0.5,0.3-1.1,0.5-1.8c0.2-0.7,0.4-1.3,0.6-1.6s0.3-0.9,0.6-1.5
			c0.2-0.6,0.4-1,0.5-1.2c0-0.1,0.2-0.6,0.6-1.5s0.7-1.6,0.9-2.2c0.2-0.6,0.2-1.1,0.2-1.5c0-0.5,0-0.8-0.1-0.9
			c0-0.1-0.1-0.2-0.1-0.2c0,0-0.1,0-0.3,0.1c-0.2,0.1-0.4,0.2-0.6,0.3c-0.5,0.2-1,0.6-1.6,1.2c-0.6,0.5-1,1-1.4,1.5
			c-0.3,0.4-0.8,1-1.4,1.8c-0.6,0.8-1,1.3-1.1,1.5c-1,1.2-2.3,3.1-4,5.7s-3,4.4-4,5.7c-0.5,0.7-1.3,0.9-2.2,0.6c-0.9-0.3-1.2-1-1-2
			c0.6-2,1.3-4.1,2.2-6.2c0.8-2.1,1.9-4.6,3-7.2c1.2-2.7,2-4.7,2.6-6.1c1-2.3,2.3-5.8,3.9-10.3c1.6-4.6,2.9-7.9,3.8-10
			c0.2-0.6,0.7-0.9,1.3-1.1c0.6-0.1,1.2,0,1.6,0.4c0.4,0.4,0.5,0.9,0.3,1.5c-0.8,2.1-2,5.4-3.7,10c-1.6,4.6-2.9,8-3.9,10.4
			c-0.5,1.3-1.5,3.6-2.9,7c0,0,0.1-0.1,0.2-0.2c0.1-0.1,0.1-0.2,0.2-0.2c0-0.1,0.4-0.6,1-1.4c0.6-0.8,1.1-1.5,1.4-1.8
			s0.8-0.9,1.5-1.7c0.7-0.7,1.3-1.3,1.7-1.6c0.5-0.3,1.1-0.7,1.7-1c0.7-0.3,1.3-0.4,1.9-0.4c1.2,0,2,0.4,2.6,1.2s0.8,1.7,0.7,2.8
			c-0.1,1.1-0.2,2.1-0.4,3s-0.5,1.8-0.8,2.7c-0.1,0.2-0.4,1-1,2.3c-0.5,1.3-0.9,2.3-1.2,3.1c0,0-0.1,0.1-0.1,0.2
			c-0.5,1-0.6,1.8-0.5,2.5c0.1,0.7,0.7,0.7,1.9,0.2c0.6-0.2,1.3-0.7,2-1.3c0.7-0.6,1.3-1.2,1.6-1.6c0.4-0.4,1-1.1,1.8-2.2
			C511.6,559,512,558.4,512.1,558.3z"/>
		<path class="st0" d="M525,555.7c0.4-0.5,1-0.8,1.6-0.7c0.7,0.1,1.2,0.3,1.4,0.8c0.3,0.5,0.2,1-0.1,1.7c-0.4,0.5-0.8,1.1-1.2,1.5
			c-0.4,0.5-0.9,1.2-1.6,2c-0.7,0.9-1.3,1.6-2,2.3c-0.6,0.6-1.4,1.3-2.2,2.1c-0.8,0.8-1.6,1.3-2.4,1.7c-0.8,0.4-1.5,0.6-2.3,0.9
			s-1.5,0.2-2.2-0.1c-0.7-0.3-1.4-0.8-2-1.5c-0.5-0.7-0.9-1.5-1-2.6c-0.1-1-0.1-1.9,0.1-2.6c0.2-0.7,0.4-1.6,0.7-2.7
			c0.3-1,0.6-2,1-3c0.4-1,0.9-2.2,1.4-3.5c0.6-1.3,1-2.3,1.2-2.9c0.3-0.7,0.7-1.1,1.4-1.2c0.7-0.1,1.2,0,1.7,0.5
			c0.5,0.4,0.5,1,0.3,1.6c-0.2,0.5-0.7,1.7-1.6,3.7c-0.9,2-1.5,3.6-1.9,4.9c-0.4,1.3-0.7,2.6-0.8,3.9c-0.1,1.2,0.1,1.9,0.8,2
			c0.6,0.1,1.4-0.2,2.3-0.9c0.9-0.6,1.8-1.4,2.8-2.4c0.9-1,1.6-1.8,2.2-2.4C523.3,557.9,524,557,525,555.7z M519.4,543.5
			c-0.5,0-0.9-0.1-1.2-0.5c-0.3-0.4-0.5-0.8-0.5-1.2c0-0.5,0.1-0.9,0.4-1.2c0.3-0.3,0.8-0.5,1.3-0.5h0.1c0.5,0,0.9,0.1,1.2,0.5
			c0.3,0.4,0.5,0.8,0.6,1.2c0,0.5-0.2,0.9-0.5,1.2s-0.8,0.5-1.3,0.5C519.5,543.5,519.5,543.5,519.4,543.5z"/>
		<path class="st0" d="M536.9,546.6c1,0.2,1.8,0.5,2.5,1.1c0.7,0.5,1.1,1.3,1.3,2.2s0.3,1.8,0.4,2.7c0,0.9-0.1,2-0.4,3.3
			c-0.3,1.3-0.6,2.4-0.8,3.3c-0.3,1-0.6,2.1-1.2,3.4s-0.9,2.3-1.2,2.9c-0.3,0.6-0.6,1.4-1,2.4c-0.2,0.5-0.4,0.8-0.4,1
			c-0.4,0.9-1.1,1.1-2,0.7c-0.9-0.5-1.3-1.2-1.1-2.1c0-0.1,0.1-0.2,0.1-0.3c2.2-5.2,3.6-9.3,4-12.2c0.1-0.6,0.2-1.2,0.2-1.7
			c0-0.5,0-1-0.1-1.5s-0.2-0.9-0.4-1.2c-0.2-0.3-0.6-0.4-1.1-0.4c-0.5,0-1.1,0.2-1.8,0.6c-2.6,1.5-4.9,4.7-6.7,9.8
			c-0.7,2.5-1.5,4.8-2.3,7c-0.2,0.6-0.7,1-1.3,1.2c-0.6,0.1-1.2,0-1.7-0.4c-0.5-0.4-0.6-1-0.3-1.6c0-0.3,0.1-0.6,0.3-1.1
			c0.2-0.5,0.3-0.8,0.3-0.9c0.5-1.5,0.9-2.6,1.1-3.3c0.5-1.6,1-3.3,1.4-4.9c0-0.2,0.3-1.1,0.9-2.6c0.5-1.6,0.9-2.9,1.1-3.9
			s0.2-1.9,0.1-2.7c-0.1-0.6,0.1-1.2,0.5-1.6c0.5-0.4,1-0.6,1.5-0.4c0.6,0.1,0.9,0.5,1.1,1.1c0.2,0.7,0.2,1.5,0.2,2.5
			C532.3,547,534.5,546.2,536.9,546.6z"/>
		<path class="st0" d="M570.7,559.2c0.6-0.3,1.2-0.3,1.8,0.1s0.8,0.9,0.8,1.4c0,0.6-0.3,1-0.8,1.4c-6,3-10.8,5.7-14.5,8.2
			c-1.1,4.3-2,7.6-2.8,9.8c-0.2,0.6-0.5,1.2-0.8,1.9c-0.3,0.7-0.6,1.5-1,2.4c-0.4,1-0.9,1.9-1.4,2.7c-0.5,0.8-1,1.7-1.6,2.6
			c-0.6,0.9-1.2,1.6-1.9,2.3c-0.7,0.6-1.3,1.1-2,1.5c-0.7,0.4-1.5,0.6-2.3,0.5c-0.8,0-1.6-0.3-2.4-0.8c-1.2-0.8-2-1.9-2.3-3.3
			c-0.3-1.4-0.2-2.9,0.3-4.4c0.5-1.5,1.1-2.9,1.8-4.2c0.7-1.3,1.4-2.4,2.2-3.3c2.9-3.5,6.6-6.8,11.2-9.9c0.1-0.5,0.3-1.1,0.5-1.7
			c-1.2,0.9-2.5,1.5-3.8,1.9c-1.3,0.4-2.7,0.5-4,0.1c-1.4-0.4-2.5-1.2-3.3-2.5c-0.8-1.3-1.2-2.7-1.3-4.3c-0.1-1.5,0.1-3,0.6-4.4
			c0.5-1.4,1.3-2.8,2.2-4.1s2-2.4,3.2-3.3c1.3-0.9,2.6-1.6,3.9-2.2c1.3-0.5,2.7-0.7,4.2-0.5c1.5,0.2,2.8,0.7,4,1.6
			c0.3-0.9,0.4-1.5,0.5-1.6c0.2-0.7,0.6-1.1,1.3-1.2c0.6-0.1,1.2,0,1.6,0.4c0.5,0.4,0.6,1,0.4,1.6c-1.1,4.3-2.3,7.7-3.5,10.2
			c-0.9,2.5-1.5,4.5-2,6.2c0,0.1,0,0.3-0.1,0.5c-0.1,0.2-0.1,0.3-0.1,0.3C562.3,563.5,566.1,561.5,570.7,559.2z M551.9,579.2
			c0.6-1.6,1.2-3.5,1.8-5.7c-1.4,1.1-2.6,2.1-3.6,3c-2.7,2.5-4.5,4.6-5.5,6.4c-0.9,1.6-1.4,3.3-1.4,5.1c0,1.7,0.7,2.3,2.2,1.7
			c0.6-0.2,1.3-0.7,1.9-1.3c0.6-0.7,1.2-1.3,1.6-1.9c0.4-0.6,0.9-1.5,1.4-2.7c0.5-1.2,0.8-1.9,1-2.4
			C551.2,581,551.5,580.3,551.9,579.2z M552.9,564c2.2-1.5,4.1-3.9,5.7-7.2c0.7-2,1.2-3.6,1.6-4.8c-1.4-1.3-2.8-1.8-4.3-1.7
			c-1.5,0.2-2.9,0.7-4.1,1.7s-2.4,2.2-3.3,3.7c-1.2,1.8-1.7,3.9-1.4,6.1c0.2,2.3,1.2,3.4,2.8,3.3C550.7,565.1,551.7,564.7,552.9,564
			z"/>
	</g>
</g>
</svg>
