<?xml version="1.0" encoding="UTF-8"?>
<svg id="Layer_1" data-name="Layer 1" xmlns="http://www.w3.org/2000/svg" viewBox="0 0 800 600">
  <defs>
    <style>
      .cls-1 {
        fill: #7a8155;
        stroke-width: 0px;
      }
    </style>
  </defs>
  <path class="cls-1" d="M188.26,188.09c-1.2.67-2.51,1.22-3.59,2.05-5.58,4.3-11.82,8.02-16.5,13.16-8.1,8.89-7.32,20.27,1.05,28.89,10.99,11.32,24.9,18,39.25,23.77,29.46,11.84,60.34,17.66,91.76,21.04,44.73,4.81,89.44,3.22,134.04-1.35,31.04-3.19,62.02-7.1,92.89-11.66,21.21-3.13,42.09-8.22,61.7-17.36,7.45-3.47,14.49-7.6,19.76-14.15,7.71-9.58,6.5-21.14-3.71-28.74,1.07,1.69,1.67,2.64,2.28,3.58,5.37,8.36,3.83,17.6-5.01,21.97-9.3,4.6-19.14,8.41-29.12,11.26-33.07,9.44-66.99,14.57-101.1,18.44-38.81,4.39-77.73,6.24-116.78,4.1-47.54-2.6-94.92-6.62-141.39-17.68-12.52-2.98-24.89-6.57-36.17-13.04-14.14-8.11-15.8-18.53-3.78-29.6,6.52-6,14.16-11.02,21.91-15.4,15.46-8.73,32.05-14.91,49.37-18.9,5.17-1.19,10.3-2.19,15.42-3.81,5.33-1.69,11.58-.96,17.35-.47,2.01.17,4.85,2.48,5.4,4.37.45,1.55-1.94,3.92-3.08,5.93-.42-.07-.84-.14-1.27-.21,1.49,1.97,3.27,3.8,4.4,5.96,1.64,3.13,2.74,6.53,4.2,9.76.57,1.27,1.2,2.78,2.26,3.5,8.59,5.82,18.16,9.11,28.44,10.18,1.44.15,3.02-.98,4.53-1.52-1.17-1.12-2.16-2.8-3.55-3.25-4.95-1.62-10.08-2.69-15.08-4.2-6.96-2.11-7.7-3.41-6.62-10.56.6-3.99-1.31-7.02-3.74-9.79-2.74-3.12-5.77-5.98-8.42-9.17-3.27-3.93-3.03-6.46,1.15-9.4,9.2-6.48,19.57-10.06,30.75-10.5,4.72-.19,8.38-1.5,12.09-4.31,2.39-1.81,5.75-2.86,8.8-3.2,10.62-1.18,21.28-1.98,31.93-2.71,2.21-.15,4.49.65,6.74,1.01-.05.33-.11.67-.16,1,1.56-.74,3.06-1.75,4.7-2.13.98-.22,2.61.23,3.15.96.45.61.09,2.44-.56,3.1-1.93,1.94-4.18,3.57-6.3,5.31.34.66.69,1.32,1.03,1.99,4.15-.24,8.34-.2,12.44-.8,2.81-.41,3.99-2.51,2.98-5.43-1.09-3.15-2.18-6.3-3.07-8.86-7.37,1.21-14.31,3.29-21.36.7-3.63-1.33-4.49-4.79-4.4-8.31.05-2.2.55-4.39.83-6.43,5.94,2.57,11.44,4.95,16.99,7.36.66-1.39.96-1.73.96-2.07-.04-8.38,3.83-12.96,12.04-14.19,5.66-.85,9.19,2.08,9,7.82-.08,2.49-.87,4.96-1.41,7.86,1.56.09,3.21.13,4.86.28,4.37.42,8.5,1.43,11.21,5.33,3.08,4.43,1.65,8.5-3.54,9.82-1.91.49-3.93.55-6.22.85.41,1.87.9,3.63,1.15,5.42.46,3.25-.76,4.4-3.76,3.24-4.07-1.58-6.9.25-10.49,3.35,2.5-.43,4.15-1.11,5.67-.89,3.62.5,7.35.98,10.71,2.3,3.67,1.43,7.03,2.65,10.67.35,4.35-2.75,4.36-7.78-.08-10.37-1.77-1.03-3.79-1.64-6.54-2.79,1.6-.62,2.38-1.18,3.14-1.17,9.5.18,19.02.15,28.49.85,2.88.21,5.59,2.55,8.41,3.86,1.17.54,2.39,1.19,3.64,1.32,1.85.18,3.75.01,5.62-.12,7.41-.55,12.97,2.52,16.98,8.63,1.25,1.9,2.32,3.93,3.62,5.79,2.87,4.09,5.54,7.62,11.76,7.68,5.14.05,10.27,2.75,15.36,4.41,3.43,1.11,6.78,2.46,10.17,3.7.31-.25.62-.49.93-.74-1.41-2-2.82-4.01-4.8-6.83,1.76.44,2.77.67,3.77.95,19.82,5.65,39.37,12.61,59.51,16.68,33.75,6.83,67.68,12.67,100.86,22.05,16.12,4.56,32.17,9.46,46.91,17.64,4.18,2.32,8.23,5.13,11.7,8.39,6.37,5.99,6.38,13.06.48,19.54-6.61,7.26-15.35,11.13-24.25,14.55-23.76,9.11-48.58,14.11-73.54,18.47-40.81,7.13-81.95,11.8-123.2,15.45-10.01.89-20.03,1.66-30.05,2.51-1.32.11-2.63.37-3.75.54,0,10.27-.09,20.29.02,30.31.16,15.13.95,30.28.55,45.39-.41,15.23-3.3,30.09-10.96,43.63-.44.77-.8,1.77-.72,2.61,1.67,18.41,3.24,36.83,5.28,55.2.42,3.8,2.45,7.5,4.1,11.08,1.8,3.9.13,6.93-2.25,9.49-2.56,2.76-3.41,5.42-3.12,9.29,1.95,25.52,3.57,51.06,5.24,76.6.13,2.01-.2,4.05-.31,6.08-.36-.02-.73-.04-1.09-.06-1.94-28.41-3.88-56.83-5.88-86.02-1.63.88-2.63,1.36-3.57,1.93-10.61,6.39-19.66,6.29-29.35-1.38-5.6-4.43-10.38-9.91-15.56-14.95.04.61.13,1.55.17,2.5.13,3.34.56,6.7.28,10-.53,6.18-3.41,9.08-9.46,8.15-9.76-1.5-19.38-3.91-29.05-5.99-1.55-.33-3.05-.92-5.45-1.67-3.54,29.12-7.04,57.87-10.53,86.62-.5-.03-1-.06-1.5-.1,0-1.19-.12-2.39.02-3.56,3.21-26.74,6.4-53.48,9.77-80.2.35-2.8-.36-4.01-2.86-5.15-5.81-2.65-6.02-3.32-4.52-9.56,3.46-14.35,6.49-28.74,6.4-43.63-.07-11.31-3.25-21.25-9.74-30.8-14.6-21.49-28.31-43.58-42.39-65.43-.71-1.11-1.47-2.18-2.9-4.28.4,1.79.61,2.38.65,2.98.1,1.63.12,3.26.18,4.89-1.77-.59-4.05-.67-5.25-1.85-10.43-10.21-20.76-20.52-30.93-31-7.18-7.4-14.08-15.09-21.04-22.7-.74-.81-1.06-1.99-1.58-3,1.06-.41,2.17-1.27,3.18-1.16,7.31.77,14.6,1.73,21.9,2.64.26.03.62.04.76.21,5.76,6.66,14.11,4.35,21.28,5.98,4.78,1.08,9.85,1.05,14.79,1.11,1.83.02,3.68-1.09,6.59-2.04,8.67,12.75,17.99,26.43,27.72,40.73-2.51-11.02-4.98-21.12-7.09-31.31-2.34-11.34-2.19-11.37,9.34-12.14,4.41-.29,8.87-.29,13.22-.97,4.42-.7,6.48,1.25,7.58,5.13,2.59,9.15,5.12,18.32,7.91,27.41,1.45,4.72,3.13,9.42,5.18,13.91,3.19,6.97,9.13,10.06,17.36,9.99-7.04-9.6-14.08-19.2-21.55-29.39,1.11-.6,2.81-1.72,4.66-2.5,9.02-3.78,18.26-7.07,27.04-11.34,5.67-2.75,10.65-6.92,16-10.37.93-.6,2.15-.94,3.27-1.04,3.02-.29,6.05-.39,9.08-.56,0-.36-.02-.71-.03-1.07-5.79,0-11.58.16-17.35-.02-53.04-1.66-106.1-2.75-159.1-5.27-54.35-2.59-108.56-7.35-162.25-16.63-24.05-4.16-48.01-8.94-70.52-18.74-7.27-3.17-13.87-7.95-20.6-12.27-1.84-1.18-3.24-3.19-4.52-5.05-5.21-7.53-4.66-14.54,2.58-20.18,5.22-4.07,11.12-7.54,17.2-10.16,20.06-8.63,41.31-13.33,62.71-16.97,24.82-4.22,49.8-7.53,74.71-11.21,1.67-.25,3.37-.26,5.05-.38.15.46.29.92.44,1.37ZM330.57,239.57c-.11-.47-.22-.93-.33-1.4-14.73,1.26-29.46,2.51-43.98-1.48-.11.47-.23.94-.34,1.41,8.01,2.6,16.02,5.21,24.04,7.81-.93,1.21-1.64,1.71-2.35,1.71-8.03.06-16.1.55-24.08-.1-7.67-.63-15.1-3-20.41-9.13-1.41-1.63-2.7-4.64-2.1-6.33.49-1.37,3.85-2.26,5.99-2.39,3.43-.21,6.66-.63,8.18-3.96,3-6.55,8.35-7.52,14.43-6.31,4.98.99,9.86,2.53,14.72,4.02,4.65,1.43,9.22,3.11,13.83,4.69.14-.3.28-.61.42-.91-6.33-3.94-12.47-8.28-19.11-11.61-2.62-1.31-6.53-1.02-9.58-.31-6.5,1.51-12.74,4.1-19.24,5.64-10.15,2.42-17.2-1.44-21.21-11.08-.97-2.35-1.65-4.82-2.73-8,0,2.88.13,4.88-.03,6.86-.22,2.66.97,6.64-2.49,7.09-1.52.2-4.62-3.55-5.2-5.94-1.54-6.36-2.11-12.96-3.06-19.46-.39.42-1.49,1.32-2.23,2.44-4.05,6.12-4.94,12.86-3.95,20.02.81,5.82,3.91,9.89,9.56,11.08,4.91,1.04,10.06,1.01,15.1,1.43,1.48.12,2.97.17,5.24.3-1.07,1.3-1.43,2.03-2.01,2.4-14.57,9.2-35.7.49-39.27-16.44-.63-3,.25-6.57,1.23-9.62,1.78-5.55,4.62-10.78,6.19-16.37,2.09-7.48,4.83-9.4,12.41-7.29.31.09.71-.16,1.05-.25-.21-1.93-.4-3.75-.64-6.01-22.09,7.11-43.53,15-61.37,30.17-2.8,2.38-5.21,5.45-7.1,8.62-3.68,6.14-2.77,11.12,2.89,15.6,3.43,2.72,7.18,5.48,11.24,6.86,13.03,4.44,26.07,9.17,39.47,12.13,46.35,10.23,93.52,13.91,140.82,15.95,30.44,1.31,60.83.05,91.15-2.86,37.66-3.61,75.06-8.84,111.67-18.61,10.82-2.88,21.49-6.71,31.72-11.25,10.21-4.53,12.08-13.43,4.78-21.93-4.36-5.08-10.28-8.83-15.52-13.16-1.01-.83-2.12-1.54-3.19-2.31.16-.31.32-.61.49-.92.97.23,2.07.23,2.89.72,6.08,3.61,12.62,6.68,18.04,11.13,11.96,9.82,12.22,22.98,1.37,34.15-6.88,7.09-15.55,11.33-24.54,14.93-21.41,8.57-43.82,13.53-66.53,16.58-31.19,4.18-62.49,7.64-93.81,10.73-44.93,4.43-89.91,4.91-134.8-.94-31.08-4.05-61.5-10.71-90.16-23.88-11.49-5.28-22.49-11.4-31.18-20.89-7.66-8.37-8.8-19.55-2.1-28.74,3.25-4.45,7.86-7.92,11.9-11.79.81-.77,1.81-1.33,3.64-2.64-2.58.19-4.01.19-5.42.41-26.59,4.23-53.25,8.04-79.72,12.88-18.84,3.44-37.52,8.1-54.76,16.85-4.91,2.49-9.44,6.09-13.45,9.92-3.76,3.58-3.79,8.09-1.09,12.55,1.3,2.16,2.72,4.57,4.72,5.91,6.62,4.46,13.18,9.29,20.41,12.53,21.93,9.82,45.39,14.43,68.89,18.58,48.5,8.57,97.5,12.79,146.58,15.99,61.13,3.99,122.35,5.71,183.61,6.39,14.02.15,28.16,1.73,42.05.49,39.76-3.53,79.48-7.7,119.11-12.5,30.19-3.66,60.14-9.11,89.43-17.59,12.12-3.51,24.12-7.43,34.77-14.42,14.14-9.28,14.21-18.78-.17-27.47-7.18-4.34-14.88-8.01-22.73-10.99-30.04-11.41-61.34-18.27-92.78-24.43-26.15-5.12-52.59-8.88-77.87-17.8-4.74-1.67-9.6-3-14.54-4.53-.46,3.29.68,4.97,3.23,6.51,2.77,1.67,4.98,4.25,7.47,6.39.66.57,1.37,1.25,2.17,1.46,11.11,2.92,20.02,9.47,28.2,17.14,4.95,4.64,4.42,9.15-1.65,12.09-4.66,2.26-9.73,3.72-14.68,5.35-7.88,2.59-15.84,4.91-23.69,7.57-2.87.97-4.67,2.98-5.59,6.26-.51,1.85-2.96,3.94-4.91,4.44-3.43.88-7.16.95-10.74.77-6.42-.32-12.81-1.13-19.22-1.63-2.04-.16-4.11-.03-6.33-.03,1.56,6.87.57,8.05-5.85,7.37-3.72-.39-7.4-1.18-11.08-1.92-6.78-1.37-13.54-2.83-20.53-4.3-.84,5.82-5.14,6.46-8.98,7.22-16.6,3.26-33.38,3-50.06,1.18-20.66-2.25-41.26-4.92-62.11-2.88-.56.05-1.15-.25-2.84-.64,4.04-2.06,7.18-3.66,10.31-5.26ZM386.39,503.55c.73-5.07,1.31-9.85,2.12-14.59,2.23-13.07,4.51-26.13,6.88-39.17,1.04-5.75,4.83-9.13,10.26-10.68,2.43-.69,5-1.42,7.48-1.36,10.69.27,21.4.54,32.06,1.36,9.27.71,17.72-.84,24.58-7.35,2.19-2.08,2.78-6.08,5.14-7.71,3.84-2.66,4.91-6.51,6.33-10.26,6.29-16.6,7.24-33.98,6.86-51.46-.39-18.35-1.08-36.7-1.65-55.05-.02-.64-.21-1.27-.37-2.23-1.87.09-3.57.14-5.28.25-7.09.46-14.17.99-21.26,1.4-5.42.31-10.12,1.07-14.92,4.9-5.94,4.73-13.51,7.49-20.57,10.69-6.89,3.13-14.02,5.75-20.75,8.48,6.88,9.88,13.46,19.46,20.21,28.91.9,1.26,2.57,2.31,4.09,2.75,7.91,2.28,13.67,7.16,17.84,14.09,5.83,9.68,8.59,20.44,10.84,31.36.11.53-.29,1.16-.78,2.94-2.14-2.51-3.91-4.19-5.22-6.17-8.05-12.18-16.09-24.37-23.91-36.69-1.94-3.06-4.1-4.87-7.78-5.39-9.27-1.33-15.13-6.93-18.18-15.61-1.68-4.8-3.3-9.63-4.76-14.5-2.3-7.7-4.35-15.47-6.73-23.14-.44-1.42-2-3.58-3.01-3.55-7.98.17-15.96.78-23.99,1.26-.1,1.09-.26,1.62-.19,2.12,2.33,15.12,5.32,30.07,11.65,44.15.55,1.22.71,2.61,1.05,3.92l-1.37.61c-1.4-1.71-2.93-3.32-4.17-5.13-9.02-13.14-17.96-26.34-27.03-39.45-.79-1.14-2.26-2.45-3.48-2.52-6.64-.39-13.3-.25-19.94-.61-4.03-.22-8.02-1.01-12.79-1.65.96,2.01,1.41,3.25,2.1,4.33,5.56,8.68,11.19,17.31,16.77,25.99,17.16,26.71,33.86,53.73,51.66,79.99,7.48,11.03,11.63,22.49,10.4,35.38-1.3,13.68-3.88,27.25-6.18,40.82-1.03,6.06-.86,6.75,5.97,8.57ZM479.01,191.29c.2-.6.4-1.21.61-1.81,1.27-.18,2.55-.34,3.82-.53,6.02-.89,10.33-4.28,13.23-9.46,2.46-4.4,1.27-7.18-2.66-10.27-3.49-2.75-6.45-6.23-9.4-9.59-2.37-2.7-4.11-5.98-6.62-8.52-3.62-3.67-8.3-3.99-13.47-3.26,5,2.93,9.9,5.21,14.04,8.45,2.8,2.19,5.43,5.42,6.56,8.73,3.07,8.97-3.99,17.87-13.29,17.61-2.41-.07-4.89-.35-7.2.13-1.64.34-3.89,1.45-4.42,2.78-2.75,7.03-8.58,9.04-15.1,9.34-11.76.53-23.55.54-35.33.76-1.55.03-3.1,0-4.73,0-.28,1.44-.47,2.48-.69,3.51-1.43,6.92-5.07,9.85-12.17,9.51-6.69-.32-11.86-3.21-15.91-8.75-1.84-2.52-4.89-4.46-7.78-5.8-2.76-1.28-5.41-.58-6.47,3.14-1.04,3.64-3.78,5.86-7.53,6.41-5.79.86-11.18-.57-16.18-3.49-1.93-1.13-3.01-2.68-1.72-5,.24-.43.53-1.22.35-1.42-3.72-3.87.42-5.07,2.43-6.6,2.91-2.22,6.15-4,9.35-6.04-.54-.45-.7-.7-.91-.73-.52-.08-1.07-.12-1.6-.08-7.33.66-14.56,1.32-21.27,5.09-7.97,4.48-19.51.42-20.58-7.67-.71-5.35.52-11.49,2.61-16.55,2.31-5.57,6.97-6.1,14.64-3.31,6.37,2.32,11.71-2.41,17.73-2.44.22,0,.5-.58.64-.94,2.19-5.85,7.35-6.91,12.59-7.77,2.73-.44,5.49-.69,8.52-1.06-1.33-5.18,1.63-6.34,5.32-6.9,1.86-.28,3.69-.7,5.53-1.06-1.45-.62-2.74-.39-4.04-.29-9.58.73-19.18,1.23-28.72,2.28-3.16.35-6.59,1.52-9.12,3.38-3.75,2.75-7.46,4.2-12.15,4.28-10.41.18-20.01,3.51-28.74,9.1-4.85,3.1-4.91,4.61-1.1,8.79,2.25,2.47,4.72,4.76,6.93,7.28,3.59,4.09,5.88,8.49,4.18,14.32-.36,1.22,1.17,3.82,2.5,4.52,2.67,1.4,5.81,1.92,8.75,2.83,3.95,1.23,8.03,2.17,11.76,3.89,1.38.63,2.68,3.18,2.56,4.73-.09,1.09-2.55,2.51-4.14,2.83-2.39.48-4.95.12-7.01.12,14.17,6.39,29.49,8.74,45.36,8.11,1.67-.07,3.36.35,5.03.54.1.68.2,1.35.3,2.03-7.87,2.93-15.74,5.86-24.02,8.94,8.25,3.7,16.27,7.55,25.45,6.09,10.05-1.6,20.03-3.62,30.03-5.55,1.41-.27,2.71-1.1,4.05-1.67l-.06-1.28c-4.84-1.47-9.68-2.94-14.52-4.41l.38-1.56c1.58.18,3.16.43,4.74.53,5.68.37,11.4,1.25,17.04.88,6.65-.43,13.21-2.11,19.85-2.96,8.75-1.11,17.53-2.17,26.33-2.78,4.03-.28,8.05.81,10.81,4.3,2.19,2.78,1.53,5.41-1.76,6.72-1.46.58-3.12.99-4.68.97-6.42-.08-12.86-.11-19.26-.6-6.58-.51-13.12-1.52-19.85-2.34,1.55,4.86.97,6.78-3.24,8.84-3.22,1.58-6.66,2.86-10.14,3.75-6.54,1.67-13.17,2.97-20.47,4.58,10.55,2.21,20.54,3.5,30.56,2.13,9.53-1.3,18.97-3.31,28.4-5.29,9.04-1.9,18.02-4.06,26.98-6.32,2.35-.59,6.02-.39,5.54-4.37-.45-3.75,1.63-4.91,4.55-5.15,4-.33,8.03-.5,12.03-.33,12.51.52,23.48-3.19,32.93-11.41,1.21-1.05,2.47-2.08,3.81-2.94,2.26-1.44,3.98-.91,4.27,1.86.26,2.45.05,4.95.05,8.05,6.45-2.72,13.06-5.16,19.35-8.26,5.94-2.93,5.86-5.98-.06-9.21-4.34-2.36-9.01-4.13-13.42-6.36-1.85-.94-3.21-1.56-5.4-.36-3.61,1.97-6.1.66-7.26-3.39-.59-2.05-.72-4.22-1.16-6.31-.18-.87-.42-2.18-1-2.43-5.46-2.33-11.01-4.47-16.52-6.67.91,2.04,2.28,3.12,3.52,4.32,4.64,4.47,3.77,7.82-2.5,9.64-1.95.56-3.95.95-6.53,1.56,4.65,2.04,8.73,3.45,12.4,5.57,2.36,1.37,5.82,3.82,5.78,5.73-.08,3.6-4.34,3.77-7.27,4.17-6.06.83-12.18,1.27-18.5,1.9,1.26,3.1-.5,4.49-3.14,4.41-9.2-.26-18.41-.56-27.57-1.34-3.94-.34-7.84-1.7-11.61-3.03-1.36-.48-2.28-2.23-3.4-3.39,1.36-.92,2.63-2.44,4.09-2.64,3.28-.46,6.67-.46,10-.32,8.3.35,16.58.93,24.88,1.31,2.04.09,4.1-.24,6.16-.38.06-.33.12-.66.19-.99-5.37-2.43-10.75-4.87-16.12-7.3ZM473.84,431.44c-2.73,2.06-4.84,3.88-7.17,5.37-8.07,5.18-16.93,4.59-26.02,3.95-10.24-.72-20.57-.88-30.81-.4-6.81.32-11.71,4.09-12.89,11.55-2.67,16.92-5.53,33.8-8.14,50.73-.14.92,1.12,2.78,2.03,3.01,10.11,2.51,20.2,5.15,30.44,6.99,6.29,1.13,8.88-1.28,8.73-7.68-.13-5.43-1.41-10.83-2.2-16.25-.19-1.32-.47-2.63-.71-3.94.38-.16.76-.32,1.14-.48.81,1.09,1.7,2.13,2.41,3.28,4.6,7.48,10.1,14.15,17.1,19.52,9.64,7.41,18.19,7.64,28.43,1,2.42-1.57,3.36-3.24,3.11-6.19-1.58-18.68-2.98-37.37-4.42-56.06-.36-4.62-.66-9.25-1.02-14.4ZM463.85,151.27c2.14,2.01,4.43,3.88,6.39,6.05,3.79,4.21,3.06,8.1-1.92,10.78-1.52.82-3.16,1.61-4.84,1.88-5.81.93-11.66,1.59-17.48,2.44-2.24.33-5.06.18-6.53,1.47-3.53,3.13-6.86,2.14-10.43.76-8.12-3.13-16.37-4.07-24.77-1.32-3.3,1.08-6.57,2.35-9.7,3.84-5.38,2.57-9.97,1.96-14.21-2.4-2.13-2.19-4.67-4.03-7.18-5.79-3.43-2.42-7.09-2.76-11.02-.92-1.24.58-2.91.25-4.38.34.05-1.53-.43-3.37.24-4.52,3.85-6.56,7.95-12.97,12.04-19.4.89-1.39,2.05-2.61,3.69-4.67-3.56.56-6.1.78-8.53,1.43-.85.23-2.09,1.59-2.01,2.3.42,3.74-2.07,4.18-4.7,4.61-3.56.59-7.22.84-10.64,1.88-2.1.64-3.83,2.48-5.73,3.78.24.4.49.81.73,1.21,1.4-.29,2.82-.87,4.19-.77,1.12.08,2.18.99,3.27,1.52-.78.94-1.4,2.43-2.37,2.7-1.59.45-3.47.41-5.1.03-4.03-.94-9.43-.36-13.17,1.79.19.18.35.44.57.52,1.01.35,2.08.56,3.05.98,1.51.66,4.66,1.36,2.17,3.28-1.3,1-4.84-.92-7.36-1.55-.25-.06-.44-.32-.68-.43-3.27-1.47-6.45-3.24-9.85-4.32-4.65-1.47-7.17-.02-9.04,3.77,2.17,1.75,4.33,3.16,5.98,5.03.55.62-.09,3.45-.4,3.48-2.46.3-4.98.17-7.76.17-1.77,4.77-.11,9.44,4.91,12.07,4.31,2.26,8.73,2.74,13.03.11,7.31-4.46,15.53-4.7,23.66-5.24,1.36-.09,2.81,1,4.21,1.54-.93,1.17-1.66,2.64-2.84,3.46-3.7,2.58-7.56,4.91-12.11,7.81,5.43,1.97,1.54,4.13.86,6.65,5.36,3.17,10.87,5.41,17.05,3.52,1.88-.58,3.8-2.58,4.73-4.43,2.53-4.99,5.07-6.68,10.08-4.32,3.21,1.51,6.12,4.18,8.42,6.95,4.63,5.56,10.25,8.17,17.32,6.95,5.95-1.02,6.31-6.04,7.08-10.76.14-.88,1.84-2.11,2.85-2.13,4.01-.08,8.04.52,12.04.4,9.89-.3,19.82-.49,29.65-1.52,3.21-.33,7.62-2.34,8.95-4.9,3.09-5.93,7.34-7.65,13.4-7.01,1.99.21,4.03.21,6.02.02,1.27-.12,2.77-.45,3.69-1.24,4.96-4.27,5.63-13.67,1.22-18.29-4.59-4.82-10.34-7.86-16.81-9.6ZM331.44,242.33c10.25.47,20.84.47,31.31,1.54,18.13,1.84,36.21,4.49,54.48,3.28,6.91-.46,13.79-1.72,20.64-2.87,2.78-.47,4.58-2.1,2.79-5.75-22.14,6.94-44.33,5.81-66.56.08,1.15-.83,2.34-1.18,3.57-1.36,3.58-.5,7.26-.59,10.75-1.46,8.8-2.19,17.55-4.62,26.22-7.26,1.23-.37,2.98-3.24,2.7-3.62-1.39-1.88-3.24-4.39-5.21-4.66-3.32-.45-6.84.61-10.28,1.04.54,4.23-.21,5.44-4.99,6.45-8.78,1.86-17.62,3.41-26.42,5.15-7.56,1.49-14.89.91-22.12-1.84-5.49-2.09-11.09-3.89-16.63-5.86-.23-.08-.28-.65-.66-1.62,9.61-.3,18.29-3.08,27.65-7.39-6.89-.34-12.75.07-18.29-1.06-10.07-2.05-20-4.83-29.89-7.65-12.34-3.52-24.28-3.28-36.06,2.22-2.75,1.28-5.86,2.21-8.86,2.39-2.66.16-5.71-.38-8.03-1.63-4.58-2.47-8.91-14.75-7.67-20.21.13-.01.3-.08.38-.03.31.23.66.45.88.76,3.88,5.51,9.37,6.82,15.6,5.74,5.25-.92,7.28-4.96,5.21-9.87-2.06-4.91-6.18-7.22-11.92-6.69-6.84.63-9.79-2.71-8.28-9.34.07-.33-.12-.71-.21-1.23-1.43.16-2.75.24-4.05.47-5.73,1.02-6.83,2.77-5.53,8.41.19.82.18,2.37-.17,2.51-.86.34-2.05.3-2.96-.01-7.73-2.66-9-1.79-11.14,6.05-1.36,4.98-3.03,10.03-5.54,14.5-2.27,4.04-3.13,7.94-1.07,11.77,2.11,3.93,4.74,7.85,8.01,10.82,6.25,5.67,13.76,7.12,21.84,4.1-2.85-.6-5.77-.76-8.63-1.25-5.17-.88-9.8-2.8-12.6-7.65-4.42-7.67-2.56-23.25,3.76-29.5,1.13-1.12,3.17-1.32,4.79-1.94.27,1.59.93,3.24.73,4.77-.82,6.13-.22,12.04,2.26,17.7.52,1.18,1.46,2.16,2.21,3.24.35-.13.7-.27,1.06-.4,0-1.96.07-3.93-.01-5.88-.19-4.68-.56-9.36-.58-14.05,0-1.09,1.05-2.18,1.62-3.28.7.99,1.77,1.88,2.04,2.98,1.22,4.93,1.74,10.08,3.39,14.85,3.43,9.98,9.82,13.42,20.03,10.95,6.1-1.47,12.11-3.42,18.02-5.55,4.66-1.68,8.97-1.49,13.08,1.1,6.9,4.37,13.74,8.84,20.51,13.41.92.62,1.32,2.01,1.96,3.04-1.22.12-2.56.62-3.64.28-7.03-2.19-13.94-4.78-21.01-6.8-4.85-1.38-9.88-2.43-14.89-2.86-2.01-.17-5.27,1.17-6.11,2.79-3.02,5.77-7.37,8.13-13.71,7.62-2.53-.2-3.32,1.68-1.84,3.32,2.27,2.53,4.83,5.09,7.79,6.64,8.19,4.29,17.19,4.77,26.25,4.32.78-.04,1.55-.35,3.26-.75-9.02-2.7-16.93-5.43-23.09-11.67,1.83-.38,3.47-.28,5.03.12,12.97,3.3,26.06,4.81,39.42,2.89,2.11-.3,4.3-.54,6.41-.31,1.73.18,3.38,1.09,5.07,1.68-.69,1.47-1.39,2.94-2.05,4.33ZM359.76,166.7c7.94-2.92,11.78-2.25,18.08,2.97,1.13.94,2.37,1.81,3.32,2.91,3.79,4.44,8.06,5.01,13.22,2.36,12.26-6.29,24.82-6.95,37.64-1.62,1.14.47,3.07.85,3.77.25,4.32-3.64,9.57-2.89,14.53-3.64,5.01-.76,10.15-1.25,14.93-2.79,6.32-2.04,6.82-5.34,2.07-9.87-1.74-1.66-3.73-3.05-5.54-4.64-.89-.78-2.04-1.6-2.36-2.62-1.15-3.62-4.16-5.6-7.12-6.58-8.47-2.79-17.31-1.98-26.42-1.78,5.51,7.29,3.41,14.25-4.44,15.45-2.48.38-5.67.1-7.7-1.2-6.88-4.38-13.24-2.84-19.75.5-1.01.52-2.15.76-3.23,1.13-.3-.46-.61-.92-.91-1.37,2.85-2.64,5.36-5.87,8.65-7.73,2.98-1.68,6.81-1.87,10.88-2.86-.99-2.08-1.92-5.03-3.63-7.4-2.9-4.02-6.3-7.69-9.37-11.36.76-.94.88-1.23,1.09-1.34,4.78-2.42,7.16-9.06,4.69-13.09-1.78-2.89-7.07-2.86-11.59.16-1.1.73-2.16,1.63-2.97,2.66-2.06,2.65-2.38,8.07-.15,9.27,6.2,3.32,6.72,9.69,8.71,15.21,1.39,3.83-.11,6.89-4.15,7.64-4.25.79-8.75.76-13.09.43-3.42-.26-4.03-2.35-1.69-4.9,1.66-1.81,3.71-3.27,5.59-4.88-7.07.7-21.83,19.9-23.08,28.73ZM560.53,199.7c.08,4.22-1.89,6.53-4.68,8.21-2.4,1.44-4.91,2.78-7.51,3.8-12.34,4.85-24.64,9.82-37.13,14.24-7.28,2.58-14.86,4.4-22.4,6.11-1.65.37-3.74-1.18-5.63-1.85,1.64-1.03,3.15-2.61,4.93-3.01,9.4-2.1,18.95-3.59,28.29-5.94,4.45-1.12,8.72-3.35,12.72-5.69,3.09-1.81,4.21-4.94,2.33-9.03-1.29,1-2.38,1.72-3.34,2.59-10.2,9.18-22.16,13.14-35.82,12.42-3.59-.19-7.22.15-10.82.36-1.96.11-2.79.96-3.04,3.28-.2,1.83-1.84,3.96-3.45,5.06-1.66,1.13-4.05,1.2-6.13,1.68-7.76,1.78-15.53,3.54-23.3,5.3.05.35.09.7.14,1.05,11.6,1.27,22.6,6.15,34.64,5.84-1.41-6.53-.59-7.53,5.91-7.43,2.67.04,5.34.4,8.01.55,6.94.39,13.89,1.01,20.83.93,1.98-.02,5.33-1.78,5.67-3.28,1.16-5.19,4.81-7.39,9.03-8.79,8.38-2.79,16.94-5,25.35-7.69,4.05-1.3,8.09-2.85,11.84-4.84,3.33-1.76,3.61-4.18,1.11-6.89-2.31-2.51-5.02-4.65-7.55-6.96ZM253.08,197.44c1.09,11.01,7.54,15.57,17.93,11.24,11.81-4.93,23.66-7.62,36.37-4.24-5.25-2.49-10.54-4.63-15.64-7.16-3.62-1.8-6.93-4.04-6.53-9.08.11-1.39-.99-3.04-1.89-4.33-1.99-2.85-4.25-5.51-6.28-8.33-.77-1.06-1.21-2.35-1.9-3.73,1.02-.27,1.41-.31,1.76-.47,1.51-.68,3-1.4,4.49-2.1-1.22-1.07-2.27-2.73-3.68-3.12-6.35-1.73-12.76-1.7-18.85,1.03-1.74.78-3.43,2.2-4.56,3.75-2.42,3.32-.66,6.79,3.42,7.15,1.06.09,2.14-.05,3.2-.11,6.2-.35,10.98,2.73,13.13,8.47,2.41,6.41-.7,11.99-7.53,12.36-4.39.24-8.85-.84-13.44-1.34ZM275.7,300.65c-.22.46-.45.92-.67,1.38,17.4,18.37,33.7,37.8,53.06,54.29.38-.76.43-1.18.27-1.5-8.11-16.94-17.09-33.37-28.71-48.22-.94-1.2-2.39-2.49-3.79-2.76-6.69-1.25-13.44-2.16-20.16-3.19ZM484.94,191.72c3.31,1.41,6.69,2.67,9.88,4.3,1.42.73,2.45,2.23,3.66,3.38-1.06,1-2.13,2.01-3.35,3.16,8.22-.6,16.56.09,24.44-4.31-5.15-3.18-10.39-5.66-15.78-7.77-6.32-2.49-12.76-4.43-18.85,1.23ZM420.72,219.62c3.48.52,6.95,1.28,10.44,1.5,9.16.58,18.34,1.05,27.52,1.25,1.54.03,3.12-1.45,4.68-2.23-1.37-1.47-2.67-3.01-4.15-4.36-.53-.48-1.48-.6-2.27-.7-12.4-1.66-24.23,1.76-36.23,4.54ZM452.32,404.12c.35-.23.69-.46,1.04-.69-4.67-15.27-7.56-31.72-24.94-38.53-.38.25-.75.5-1.13.74,8.34,12.83,16.68,25.65,25.03,38.48ZM488.58,202.35c-9.45-.6-19.31-1.3-29.18-1.8-2.22-.11-4.48.47-6.72.74,0,.56.02,1.12.03,1.68,12.95,4.03,26.14,5.89,40.28,4.46-1.81-2.08-3.02-3.47-4.41-5.07ZM500.82,170.81c-1.41,5.1-2.67,9.65-4.17,15.05,4.57-.81,9.47-1.47,14.26-2.61,2.42-.58,2.75-2.68.86-4.23-3.73-3.05-7.7-5.8-10.95-8.21ZM403.13,125.61c-.12.5-.24,1-.36,1.5,1.58,2.77,3.16,5.54,4.73,8.31,1.8,3.18,4.84,2.63,7.48,2.02,1.56-.36,4.16-2.45,3.98-3.03-.7-2.22-1.9-5.2-3.72-5.98-3.75-1.6-8.03-1.96-12.1-2.83ZM367.82,121.13c-1.43,6.72.83,9.86,7.93,9.87,3.54,0,7.08-.62,10.62-.96.14-.38.28-.76.41-1.14-1.18-1.03-2.19-2.52-3.56-3-4.98-1.74-10.08-3.15-15.41-4.77ZM479.66,474.16c-.17-.02-.35-.04-.52-.07.75,9.52,1.49,19.03,2.27,28.89,4.84-3.84,5.2-6.07,2.57-10.65-.98-1.7-1.63-3.67-2.05-5.6-.89-4.16-1.53-8.38-2.27-12.58ZM528.09,179.65c.55,3.28.65,5.42,1.33,7.36.35,1,1.8,2.41,2.57,2.3,1.39-.19,2.93-1.15,3.81-2.26.35-.45-.6-2.44-1.44-3.2-1.53-1.37-3.42-2.35-6.26-4.21Z"/>
</svg>