<?xml version="1.0" encoding="UTF-8"?>
<svg id="Layer_1" data-name="Layer 1" xmlns="http://www.w3.org/2000/svg" viewBox="0 0 800 600">
  <defs>
    <style>
      .cls-1 {
        fill: #7a8155;
        stroke-width: 0px;
      }
    </style>
  </defs>
  <path class="cls-1" d="M427.74,409.57c20.81-2.33,42.19-5.61,63.69-6.96,42.48-2.67,82.78,7.38,122.3,22.23,22.38,8.41,45.04,16.62,68.23,22.19,35.69,8.58,70.09.25,103.51-12.85,4.22-1.65,8.43-3.33,14.53-5.74-1.59,2.34-1.88,3.32-2.49,3.59-36.25,15.81-73.71,26.71-113.4,18.18-22.52-4.84-44.6-12.63-66.15-20.98-44.86-17.38-90.7-28.08-139.01-23.24-18.9,1.89-37.57,6.15-56.31,9.54-2.42.44-4.8,1.87-6.87,3.31-32.63,22.81-69.15,33.61-108.56,36.49-15.09,1.1-30.04,4.2-45.06,6.32-37.38,5.26-74.56,2.84-111.75-2.47-31.12-4.45-62.28-9.28-93.95-5.68-17.88,2.03-34.88,6.66-50.67,15.44-1.52.85-3.14,1.51-5.79.88,2.03-1.35,3.97-2.86,6.1-4.03,22.08-12.14,46.16-17.03,70.86-15.9,27.25,1.24,54.47,4.27,81.55,7.78,40.15,5.2,80.1,6.07,120.1-2.3-7.76-1.05-15.57-1.79-23.27-3.2-38.94-7.14-73.92-22.56-102.09-51.06-17.06-17.26-29.59-37.46-31.4-62.29-1.69-23.2-2.65-47,11.87-67.1,7.57-10.47,16.4-21.06,26.97-28.13,25.15-16.81,52.58-29.46,82.58-35.47,25.51-5.11,51.17-6.76,76.75-.82,22.55,5.24,25.84,11.2,17.08,32.53-7.44,18.11-16.25,35.65-24.23,53.54-3.81,8.56-1.77,11.65,7.11,9.64,35.67-8.07,71.22-16.64,106.81-25.08.3-.07.44-.8,1.16-2.2-36.21,4.5-70.12,20.2-106.77,17.41,32.17-.63,62.23-12.52,93.5-17.76,10.48-1.76,21.7-.56,32.38.84,7.16.94,11.87,7.4,12.64,14.22,1.61,14.23,3.08,28.7,2.3,42.94-1.61,29.27-11.35,55.46-33.93,75.6-.49.44-.65,1.26-.33.6ZM408.62,418.75c-2.67.77-5.32,1.61-8.01,2.28-21.47,5.35-42.84,11.18-64.47,15.84-15.77,3.39-19.58.48-23.19-15.4-7.09-31.17-13.92-62.4-20.71-93.64-2.51-11.54-1.91-12.32,6.44-15.26,1.05-6.17,1-11.55,2.9-16.1,8.73-20.91,18.04-41.59,27.07-62.37,1.27-2.91,2.17-5.98,3.51-9.72-3.88-.59-6.61-1.16-9.37-1.41-29.97-2.69-59.73-.1-89.51,3.27-26.33,2.98-48.68,12.43-64.29,34.93-3.51,5.07-8.29,9.26-11.78,14.34-2.85,4.15-6.13,8.86-6.66,13.61-1.8,16.35-2.77,32.81-3.35,49.26-.14,4,1.54,8.71,3.87,12.04,12.62,18.03,32.06,26.7,50.87,36.78,1.54-13.13,1.51-13.01-9.89-15.72-6.71-1.59-11.81-5.43-13.37-12.5-1.44-6.53,1.46-11.68,6.58-15.45,8.14-5.99,17.27-6.63,26.47-3.25,8.98,3.3,11.85,11.51,6.34,19.31-3.42,4.84-8.59,8.45-13.36,12.99.16,1.71.88,4.33.54,6.81-.99,7.27,1.83,11.61,8.73,14.11,14.75,5.36,29.15,11.76,44.09,16.47,12.73,4.02,26.07,6.1,39.03,9.47,2.24.58,3.91,3.3,5.85,5.04-2.09,1.99-3.86,4.94-6.34,5.76-3.56,1.18-7.64,1.15-11.49,1.05-38.1-.98-73.41-11.6-104.46-33.65-32.2-22.87-43.33-55.93-39.44-94.09.95-9.35,7.09-18.08,10.27-27.3,5.74-16.66,16.42-29.15,31.45-37.83,22.94-13.26,47.16-23.34,73.72-26.3,17.56-1.96,35.23-2.93,52.06-4.28-40.59-5.12-79.71,2.89-116.86,21.16-38.09,18.74-58.3,50.98-66.98,91.38-.82,3.8.2,8.23,1.22,12.14,8.33,31.86,25.53,57.99,52.19,77.3,42.94,31.11,91.82,42.22,143.96,39.98,31.58-1.36,60.15-12.85,86.36-31.04ZM417.18,348.39c-.34.98-.67,1.96-1.01,2.95-3.77-.68-7.68-.92-11.27-2.11-11.98-3.96-23.63-9.08-35.8-12.22-18.11-4.67-36.44-8.9-54.92-11.64-11.5-1.7-14.37,2.33-13.17,13.92,2.89,28,12.25,54.18,23.06,79.92,2.5,5.95,7.12,8.98,13.51,7.91,10.38-1.73,21.04-2.86,30.92-6.2,27.87-9.41,51.37-24.97,65.92-51.63,1.21-2.22,1.95-4.7,2.9-7.06-.8-.43-1.59-.85-2.39-1.28-1.52,2.26-3.34,4.38-4.5,6.81-7.31,15.32-18.05,27.57-32.62,36.27-6.6,3.94-13.45,7.48-20.3,10.98-13.07,6.68-26.79,9.68-40.98,4.47-3.43-1.26-5.74-5.58-8.56-8.5,3.57-1.81,7.02-4.78,10.74-5.16,4.99-.51,10.2.9,15.29,1.63,30.93,4.42,36.5,1.3,48.78-27.84,4.4-10.43,11.71-17.83,22.83-20.06,5.47-1.1,7.87-3.82,7.88-8.55.02-13.31-.72-26.63-.59-39.93.06-5.74.25-12.12,2.73-17.02,2.71-5.35.03-8.62-2.21-11.78-1.08-1.53-5.22-1.17-7.96-1.13-2,.02-3.99.94-5.99,1.4-33.35,7.75-66.65,15.71-100.07,23.12-10.15,2.25-13.75-2.62-9.58-12.17,5.25-12.04,11.17-23.79,16.41-35.84,4.31-9.9,8.41-19.93,11.91-30.14,2.19-6.41.84-8.5-5.87-12.01,6.3,9.86.91,17.57-2.31,25.38-4.62,11.19-9.83,22.13-14.82,33.16-4.14,9.15-8.42,18.24-12.47,27.44-2.33,5.28-.49,9.03,4.89,10.95,2.42.86,4.91,1.55,7.42,2.11,31.97,7.14,63.44,15.92,93.57,28.97,3.02,1.31,5.76,3.24,8.63,4.89ZM153.24,361.16c-.46.05-.91.11-1.37.16,6.2,8.25,11.2,17.88,18.8,24.52,34.49,30.13,75.68,42.48,120.91,42.64,2.81,0,5.62-1.62,8.44-2.49-.17-.84-.33-1.68-.5-2.52-3.21-.18-6.41-.44-9.62-.54-22.86-.75-45.04-5.14-65.98-14.24-6.53-2.84-11.81-8.62-17.56-13.19-2.72-2.16-4.88-5.13-7.79-6.92-15.02-9.28-30.21-18.3-45.34-27.42ZM310.76,393.22c-.41.12-.82.23-1.23.35,2.05,8.98,3.91,18,6.19,26.92,3.91,15.33,6.28,17.32,21.57,13.67,26.52-6.33,52.82-13.55,79.19-20.52,1.89-.5,4.01-1.57,5.19-3.04,8.64-10.81,17.56-21.45,25.38-32.83,4.66-6.78,1.87-11.54-6.37-13.83-20.79,40.1-55.32,59.59-98.65,65.64-12.97,1.81-16.86-.66-22.1-12.86-3.31-7.72-6.13-15.66-9.16-23.49ZM452.66,367.42c4.96-15.86,8.31-32.18,6.71-49.01-.59-6.21-2.77-12.63-5.75-18.13-1.9-3.51-6.6-5.5-9.48-7.73.45,18.52,1.86,35.67.89,52.69-.51,8.95-4.68,17.54,7.63,22.18ZM203.16,339.13c-.45.47-.9.94-1.35,1.4-3.24.77-6.62,1.16-9.67,2.38-6.39,2.54-11.34,6.81-10.76,14.33.55,7.27,6.11,10.06,12.42,11.95,6.48,1.94,11.57-.5,16.22-4.47,4.76-4.07,10.57-9.12,7-15.44-2.57-4.55-9.1-6.85-13.86-10.16ZM125.97,344.41c5.53,53.97,91.05,112.91,154.62,107.14-68.54-11.2-126.99-36.95-154.62-107.14ZM213.26,224.9c.16.78.32,1.56.48,2.34,38.66-8.1,77.7-9.48,116.89-6.47,1.07-8.56-5.07-8.3-9.5-8.21-21.3.43-42.7.34-63.85,2.52-14.85,1.53-29.36,6.43-44.02,9.82ZM395.19,402.5c15.93-9.93,27.62-22.59,34.41-40.64-12.16,1.43-19.21,7.94-23.76,17.85-3.38,7.37-6.86,14.7-10.64,22.79ZM296.84,336.31c2.75-11.87,5.48-14.21,17.59-14.11,3.08.02,6.29-.09,9.22.69,20.82,5.54,41.61,11.2,62.34,17.05,6.6,1.87,13.01,4.45,19.5,6.7.32-1.05.64-2.1.96-3.14-26.31-7.7-52.56-15.65-78.98-22.97-8.62-2.39-17.68-3.28-26.57-4.65-5.52-.85-7.64,1.9-6.66,7.23.81,4.41,1.72,8.81,2.59,13.21ZM436.63,358.33c8.86-3.1,10.17-49.02,0-64.04v64.04ZM376.31,412.41c-13.25-1.44-25.86-2.97-38.51-4.02-2.13-.18-4.44,1.71-6.66,2.64,1.7,1.92,3.04,4.78,5.17,5.59,13.82,5.31,26.91,2.61,40-4.22ZM279.9,419.98c-23.95-8.11-47.09-15.94-71.98-24.37,22.13,17.12,46.95,20.32,71.98,24.37ZM459.25,303.62c.62-15.7-10.13-31.26-23.74-22.89,2.29,3.19,4.2,8.68,6.93,9.12,8.44,1.38,12.94,6.54,16.81,13.77ZM157.39,249.68c-17.75,13.19-28.48,30.59-31.55,52.62,7.41-19.41,16.58-37.76,31.55-52.62ZM178.2,247.09c-.65-.58-1.3-1.17-1.96-1.75-5.34,5.98-10.69,11.96-16.03,17.94.6.53,1.2,1.06,1.8,1.6,5.39-5.93,10.79-11.86,16.18-17.78Z"/>
  <path class="cls-1" d="M383.96,172.48c-1.64-8.66,2.98-15.05,14.39-15.24,6.07-.1,12.47.73,18.21,2.66,25.5,8.58,47.09,23.08,63.51,44.62,6.11,8.01,11.48,16.58,10.46,27.47-.87,9.27-8.4,15.11-17.57,14.19-3.53-.36-7.4.12-10.79,1.22-41.82,13.57-83.52,27.5-125.41,40.82-4.91,1.56-10.8.05-16.23-.04,1.39-5.01,1.92-10.47,4.3-14.96,14.8-28,29.83-55.89,45.23-83.57,3.13-5.62,8.17-10.18,13.91-17.16ZM377.01,267.6c-18.15-6.52-23.7-13.97-19.25-24.07,4.26-9.68,19.42-13.7,31.16-7.06,4.03,2.28,8.1,7.75,8.58,12.16.48,4.4-3.52,9.29-5.66,14.22,17.51-4.43,34.49-10.22,49.5-20.61,10.97-7.6,12.83-16.99,5.26-27.96-3.61-5.22-7.79-10.93-13.12-13.92-14.3-8.02-29.22-14.97-44.18-21.7-4.11-1.84-8.53-.29-10.55,4.97-1.93,5.04-4.13,10.02-6.61,14.81-12.66,24.49-25.49,48.88-38.1,73.39-1.06,2.07-.92,4.75-1.34,7.15,2.41.36,5.1,1.59,7.2.94,11.99-3.71,23.83-7.86,37.11-12.33ZM468.74,240.88c4.44-2.52,7.56-4.33,10.71-6.07,9.89-5.45,10.16-6.21,5.64-16.58-.62-1.42-1.22-2.86-2.05-4.16-18.63-29.07-45.12-46.86-78.67-54.05-3.97-.85-8.96.06-12.63,1.87-2.61,1.28-5.42,5.63-5.12,8.28.25,2.26,4.61,5.44,7.47,5.82,33.45,4.42,56.62,21.76,68.91,53.4,1.45,3.74,3.59,7.21,5.75,11.49ZM321.85,285.53c.69.99,1.38,1.99,2.06,2.98,48.75-10.91,95.72-27.47,141.49-45.37-9.8-28.83-24.36-52.18-55.15-60.03,2.32,1.68,4.96,2.94,7.61,4.2,13.26,6.34,24.97,14.61,32.48,27.62,6.15,10.65,4.61,20.05-4.95,27.44-5.45,4.22-11.4,8.41-17.81,10.69-29.02,10.31-58.24,20.04-87.52,29.6-2.65.86-7.4.04-8.94-1.84-1.5-1.84-.93-6.32.13-9.11,2.19-5.79,5.31-11.23,8.05-16.81-.56-.26-1.12-.53-1.68-.79-5.26,10.47-10.52,20.94-15.78,31.42ZM376.49,236.07c-10.33.1-17.29,5.65-17.14,13.66.15,7.98,8.84,14.28,19.74,14.32,7.53.03,16.35-8.6,16.13-15.77-.21-6.91-8.5-12.31-18.73-12.21Z"/>
  <path class="cls-1" d="M184.97,322.57c-7.76-2.23-14.75-3.31-20.9-6.21-11.1-5.24-12.94-17.22-4.8-26.4,11.39-12.84,37.88-15.2,51.27-4.56,11.15,8.87,10.67,23.45-1.95,29.96-7.31,3.78-15.96,4.96-23.62,7.2ZM185.23,319.56c6.9-1.81,13.65-2.71,19.66-5.32,13.34-5.81,14.29-19.58,2.36-27.81-12.26-8.45-35.75-5.74-45.76,5.29-7.24,7.97-5.9,17.77,3.9,22.25,6.17,2.82,13.18,3.78,19.84,5.58Z"/>
  <path class="cls-1" d="M263.84,237.71c8.18,3.84,17.11,6.63,24.36,11.78,9.87,7.01,9.2,19.21-.1,27.03-10.64,8.95-28.4,9.15-39.38.45-7.34-5.82-10.3-15.65-7.3-24.22,2.92-8.33,10.72-13.06,21.48-13.03.31-.67.63-1.34.94-2.01ZM269.01,282.21c6.09-2.89,12.86-4.88,18.11-8.87,7.45-5.68,7.4-14.32.53-20.75-8.5-7.96-18.74-11.69-30.47-9.55-11.39,2.08-16.94,12.64-12.64,23.46,3.48,8.76,12.29,13.98,24.47,15.71Z"/>
  <path class="cls-1" d="M234.12,265.56c.09,7.2-4.07,12.57-11.33,14.62-11.41,3.23-25.55-2.72-31.26-13.16-5.33-9.76-1.87-19.44,8.35-23.32,15.75-5.99,34.03,5.68,34.24,21.86ZM205.93,244.5c-2.61,1.57-8.76,3.51-11.86,7.71-2.18,2.96-1.77,9.8.18,13.46,4.67,8.75,13.08,13.02,23.07,12.67,12.05-.42,17.36-9.65,12.11-20.43-4.1-8.41-11.16-12.42-23.5-13.41Z"/>
  <path class="cls-1" d="M251.61,399.52c-1.28-.07-2.57-.08-3.85-.22-10.14-1.11-16.61-6.27-17.12-13.63-.52-7.44,5.01-14.1,14.34-16.73,8.95-2.53,17.85-2.6,26.01,2.57,8.79,5.56,9.5,15.97.77,21.51-5.85,3.71-13.02,5.34-19.6,7.9-.19-.47-.37-.93-.56-1.4ZM251.67,397.82c5.94-2.08,12.35-3.33,17.7-6.43,8.35-4.85,8.06-14.21-.85-17.85-6.01-2.46-13.44-3.08-19.97-2.28-10.22,1.25-15.67,7.43-15.14,14.35.51,6.67,7.34,10.87,18.26,12.22Z"/>
  <path class="cls-1" d="M254.19,358.55c-3.47-.82-7.16-1.16-10.38-2.55-8.88-3.84-10.66-13.82-3.18-19.99,9.68-7.98,21.27-10.7,33.38-7.4,3.53.96,8.12,5.33,8.52,8.6.51,4.1-1.55,10.56-4.71,12.65-6.81,4.5-15.04,6.86-22.69,10.1-.32-.47-.63-.94-.95-1.41ZM254.63,355.52c.23.51.46,1.01.69,1.52,6.96-2.93,14.29-5.24,20.69-9.1,2.52-1.52,4.51-6.86,3.86-9.83-.63-2.87-4.6-6.18-7.75-7.11-9.38-2.77-18.57-.33-26.38,4.96-3.26,2.21-6.83,7.67-6.21,10.88.61,3.19,6.17,5.6,9.84,7.92,1.37.87,3.5.54,5.28.76Z"/>
  <path class="cls-1" d="M246.24,294.21c6.88.98,12.18,2.87,13.78,10.03,1.39,6.24-2.64,12.37-9.61,14.79-8.16,2.83-15.91,1.59-22.67-3.62-6.48-4.98-6.1-11.87,1.16-15.48,5.4-2.68,11.54-3.87,17.36-5.72ZM244.39,317.41c.63-.13,3.24-.33,5.58-1.22,5.03-1.92,8.14-5.5,7.23-11.22-.99-6.27-5.94-7.11-11.03-7.1-2.53,0-5.18.36-7.57,1.16-5.1,1.72-12.72,2-11.99,9.35.68,6.82,7.56,8.15,13.56,9.02.75.11,1.53.01,4.22.01Z"/>
  <path class="cls-1" d="M300.3,223.19c4.27,1.47,8.96,2.29,12.66,4.65,2.34,1.5,4.73,5.54,4.34,8.01-.45,2.88-3.76,7.34-6.08,7.5-6.59.46-13.59-.02-19.83-2.01-2.66-.85-5.93-7-5.15-9.61.93-3.11,5.8-5.19,9.2-7.33,1.13-.71,3.01-.24,4.54-.32l.32-.9ZM302.56,243.73c.28-.45.57-.9.85-1.35,1.53-.2,3.37.07,4.53-.7,2.58-1.71,5.99-3.58,6.77-6.1.48-1.56-3.06-4.61-5.15-6.62-1.01-.97-2.88-1.65-4.27-1.51-5.16.5-10.34,1.16-15.35,2.41-.71.18-1.47,5.2-.61,5.84,4.11,3.08,8.77,5.42,13.23,8.03Z"/>
  <path class="cls-1" d="M354.77,345.36c7.34,1.98,14.14,2.83,20.04,5.6,11.82,5.54,12.24,19.48,1.12,26.57-8.06,5.14-17.14,6.13-26.04,3.33-6.99-2.2-14.15-5.07-20.03-9.31-8.1-5.84-7.18-14.97,1.83-19.14,7.31-3.38,15.52-4.82,23.09-7.04ZM358.1,381.23c.31-.52.62-1.04.93-1.57,3.75-.8,7.63-1.21,11.21-2.49,5.86-2.1,10.52-5.72,10.73-12.65.22-7.13-4.52-10.76-10.45-12.66-12.48-4-24.91-3.36-36.75,2.38-8.29,4.02-9.22,11.19-1.33,15.92,7.92,4.74,17.05,7.46,25.65,11.06Z"/>
  <path class="cls-1" d="M393.33,297.72c6.15,1.21,11.3,1.72,16.11,3.29,8.28,2.69,11.35,7.76,10.41,15.65-.92,7.69-6.27,13.95-13.7,14.46-12.98.9-24.29-3.69-33.22-13.06-5.11-5.37-3.9-12.09,2.92-15.27,5.66-2.63,12.1-3.58,17.48-5.08ZM393.98,300.73c-4.87,1.14-10.58,1.77-15.71,3.85-6.42,2.59-7.38,8.18-2.3,12.84,8.24,7.57,18.07,11.79,29.49,10.9,7.32-.57,10.72-5.5,11.72-12.25,1-6.81-2.66-10.8-8.78-12.53-4.41-1.25-9.02-1.79-14.41-2.81Z"/>
  <path class="cls-1" d="M403.63,199.44c7.58,1.98,13.42,2.98,18.84,5.06,5.35,2.06,9.78,6.55,8.31,12.4-1.18,4.71-4.45,10.08-8.41,12.66-9.33,6.08-31.94,2.81-40.27-4.56-5.95-5.27-6.22-13.52.79-17.66,6.58-3.89,14.44-5.59,20.74-7.9ZM407.79,231.02c5.51-1.77,11.07-2.5,15.43-5.19,7.65-4.71,7.09-13.33-.44-18.19-9.03-5.82-28.09-5.55-36.86.54-7.21,5-7.3,12.58.64,16.32,6.57,3.1,13.99,4.37,21.23,6.51Z"/>
</svg>